<svg viewBox="0 0 48 48" xmlns="http://www.w3.org/2000/svg" id="icon">
    <g fill="none" fill-rule="evenodd">
        <path d="M0 0h48v48H0z"/>
        <path d="M24 4a19.94 19.94 0 0110.645 3.065l-.01.018 2.024 1.44-.869 1.223a2.502 2.502 0 01-3.487.588A15.9 15.9 0 0024 8C15.177 8 8 15.177 8 24c0 8.822 7.177 16 16 16 8.822 0 16-7.178 16-16 0-3.113-.897-6.116-2.584-8.709a2.49 2.49 0 01.482-3.497l1.197-.905 1.498 1.984.02-.013A19.907 19.907 0 0144 24c0 11.028-8.972 20-20 20-11.029 0-20-8.972-20-20C4 12.971 12.971 4 24 4zm0 26.865a2 2 0 11-.002 4.001A2 2 0 0124 30.865zm2-18v11.5a2.5 2.5 0 01-2.5 2.5H22v-11.5a2.5 2.5 0 012.5-2.5H26z" fill="var(--icon-color,#333)"/>
    </g>
</svg>
