<svg viewBox="0 0 48 48" xmlns="http://www.w3.org/2000/svg" id="icon">
    <g fill="none" fill-rule="evenodd">
        <path d="M0 0h48v48H0z"/>
        <path d="M37.347 28.2v-5.854c0-.105-.018-.207-.03-.31h.03c-.09-6.397-4.878-11.701-11.025-12.655a2.98 2.98 0 001.025-2.242 3.001 3.001 0 00-6 0 2.98 2.98 0 001.025 2.242c-6.147.953-10.936 6.257-11.025 12.655h.031c-.012.103-.03.205-.03.31V28.2a10 10 0 00-4.001 7.933v.006c-.01 2.199 1.776 4 4.01 4H19.4c.475 2.265 2.497 3.979 4.89 3.979 2.392 0 4.414-1.714 4.89-3.98h8.158c2.232 0 4.02-1.8 4.01-4v-.005a9.994 9.994 0 00-4-7.933zm-13-14.987c4.895 0 8.932 3.984 9 8.88l.001 6.839c0 .815.396 1.532 1 1.988v.087a5.993 5.993 0 012.995 5.132H11.351a5.995 5.995 0 012.996-5.132v-.087a2.485 2.485 0 001-1.988v-6.84c.068-4.895 4.106-8.88 9-8.88zm11.369-9.211l2.394.91a13.966 13.966 0 017.769 13.259l-.373 2.523-1.485-.214a2.491 2.491 0 01-2.132-2.516 9.983 9.983 0 00-5.55-9.466 2.5 2.5 0 01-1.16-3.096l.537-1.4zM13.18 4l.538 1.4a2.492 2.492 0 01-1.163 3.092 9.99 9.99 0 00-5.542 9.472 2.504 2.504 0 01-2.139 2.517l-1.484.213-.37-2.523a13.969 13.969 0 017.766-13.26L13.18 4z" fill="var(--icon-color,#333)"/>
    </g>
</svg>
