<svg viewBox="0 0 48 48" xmlns="http://www.w3.org/2000/svg" id="icon">
    <g fill="none" fill-rule="evenodd">
        <path d="M0 0h48v48H0z"/>
        <path d="M23.93 26.076l1.062-1.061-3.961-3.961.657-4.807a6.03 6.03 0 00-3.912-6.458l-1.71-.616a6.03 6.03 0 00-7.132 2.479L.906 24.582a5.975 5.975 0 00-.571 5.136 5.976 5.976 0 003.634 3.675l3.03 1.09V44.5A2.5 2.5 0 009.5 47H11V34.484a3.999 3.999 0 00-2.644-3.763l-3.03-1.092a1.987 1.987 0 01-1.211-1.224 1.99 1.99 0 01.19-1.713l8.028-12.93a2.013 2.013 0 012.377-.826l1.71.617a2.009 2.009 0 011.306 2.152l-.657 4.807a4.021 4.021 0 001.134 3.37l2.194 2.194a2.5 2.5 0 003.535 0zM28 22.68V25a4 4 0 004 4h3a4 4 0 004-4v-2.5a2.5 2.5 0 00-2.5-2.5H35v5h-3v-2.318a4.004 4.004 0 00-1.172-2.83l-3.082-3.08-1.06 1.06a2.5 2.5 0 00.002 3.537L28 22.68zM45.5 31h-22a2.5 2.5 0 00-2.5 2.5V35h27v-1.5a2.5 2.5 0 00-2.5-2.5zm-1-2a3.5 3.5 0 100-7 3.5 3.5 0 000 7zM18.26 7.777a3.5 3.5 0 102.467-6.553 3.5 3.5 0 00-2.467 6.553z" fill="var(--icon-color,#333)"/>
    </g>
</svg>
