<svg viewBox="0 0 48 48" xmlns="http://www.w3.org/2000/svg" id="icon">
    <g fill="none" fill-rule="evenodd">
        <path d="M0 0h48v48H0z"/>
        <path d="M24.279 10a3.5 3.5 0 100-7 3.5 3.5 0 000 7zm8.286 29l-.193-.869A4.002 4.002 0 0028.466 35H23.51a8 8 0 01-7.82-6.317l-3.175-14.71A2.499 2.499 0 0010.072 12H8l3.78 17.525A11.998 11.998 0 0023.511 39h4.953l.667 3H18.648a2.5 2.5 0 00-2.5 2.5V46h12.99a4 4 0 003.903-4.875L32.565 39zm7.525 4l-2.084-9.302A5.963 5.963 0 0032.149 29h-8.675c-.943 0-1.758-.66-1.956-1.583l-1.925-9.001a1.989 1.989 0 01.402-1.674A1.994 1.994 0 0121.55 16h1.899c.944 0 1.76.66 1.958 1.584l.357 1.67A6 6 0 0031.633 24h3.515v-1.5a2.5 2.5 0 00-2.5-2.5h-1.015a2.001 2.001 0 01-1.957-1.581l-.358-1.674A6.001 6.001 0 0023.451 12H21.55c-2.169 0-4.167 1.153-5.259 3.104-.733 1.311-.881 2.871-.569 4.339l1.884 8.807A6 6 0 0023.474 33h8.674a2 2 0 011.953 1.566l2.113 9.477A2.498 2.498 0 0038.654 46h2.107l-.671-3z" fill="var(--icon-color,#333)"/>
    </g>
</svg>
