<svg viewBox="0 0 48 48" xmlns="http://www.w3.org/2000/svg" id="icon">
    <g fill="none" fill-rule="evenodd">
        <path d="M0 48h48V0H0z"/>
        <path d="M13.91 31l3.779-5.295L19.29 31h-5.38zm5.59-14a2.5 2.5 0 002.5-2.5V13H9v1.5a2.5 2.5 0 002.5 2.5h2.072a1.996 1.996 0 011.914 1.421l.74 2.448-5.572 7.807a3.94 3.94 0 00-.362 4.021 4.017 4.017 0 001.734 1.83c.464.246.988.406 1.56.45a4.956 4.956 0 01-1.055 1.559 4.962 4.962 0 01-2.58 1.37 5.025 5.025 0 01-1.911 0 4.969 4.969 0 01-2.58-1.37c-1.857-1.857-1.938-4.828-.258-6.79A5.002 5.002 0 017.35 28.28c.372-.13.696-.344.955-.616a2.509 2.509 0 00.687-1.726v-1.935a8.929 8.929 0 00-3.994.935 9.023 9.023 0 00-2.367 1.698c-3.51 3.51-3.51 9.218 0 12.728a8.973 8.973 0 002.176 1.604 9.024 9.024 0 004.188 1.028A8.97 8.97 0 0017.763 35h3.826a3.997 3.997 0 003.264-1.687l8.516-12.022 3.004 9.933c.08.263.2.506.353.722A2.501 2.501 0 0038.766 33h2.323l-1.493-4.94c.308.038.609.103.899.193.402.127.773.317 1.126.535.516.318.965.724 1.333 1.201A4.904 4.904 0 0144 33c0 2.757-2.243 5-5 5a5.005 5.005 0 01-4.723-3.358A2.474 2.474 0 0031.934 33H30a8.95 8.95 0 00.708 3.5C32.076 39.729 35.277 42 39 42c4.963 0 9-4.037 9-9s-4.037-9-9-9c-.21 0-.417.015-.624.029l-4.162-13.766A6 6 0 0028.47 6H24v1.5a2.5 2.5 0 002.5 2.5h1.97a2 2 0 011.915 1.421l1.517 5.017-9.016 12.633-3.571-11.808a1.687 1.687 0 00-.103-.263h.288z" fill="var(--icon-color,#333)"/>
    </g>
</svg>
