<svg viewBox="0 0 48 48" xmlns="http://www.w3.org/2000/svg" id="icon">
    <g fill="none" fill-rule="evenodd">
        <path d="M0 0h48v48H0z"/>
        <path d="M30 32.5V34h3.5a2.5 2.5 0 002.5-2.5V30h-3.5a2.5 2.5 0 00-2.5 2.5zM15.5 30H12v1.5a2.5 2.5 0 002.5 2.5H18v-1.5a2.5 2.5 0 00-2.5-2.5zM36 37H12a2 2 0 01-2-2V11.083C12.345 9.985 17.489 9 24 9s11.655.985 14 2.083V35a2 2 0 01-2 2zm-21 6h18v-2H15v2zm23-2a4 4 0 004-4V11.083c0-1.428-.749-2.863-2.312-3.621C36.391 5.923 30.632 5 24 5c-6.632 0-12.391.923-15.688 2.462C6.749 8.22 6 9.655 6 11.083V37a4 4 0 004 4h1v2h26v-2h1zm-8-27.5a2.5 2.5 0 00-2.5-2.5h-7a2.5 2.5 0 00-2.5 2.5V15h12v-1.5zm-18 12a2.5 2.5 0 002.5 2.5h19a2.5 2.5 0 002.5-2.5V24H12v1.5z" fill="var(--icon-color,#333)"/>
    </g>
</svg>
