<svg viewBox="0 0 48 48" xmlns="http://www.w3.org/2000/svg" id="icon">
    <g fill="none" fill-rule="evenodd">
        <path d="M0 0h48v48H0z"/>
        <path d="M39 29v-1.5a2.5 2.5 0 00-2.5-2.5H35v1.5a2.5 2.5 0 002.5 2.5H39zm6 0v-1.5a2.5 2.5 0 00-2.5-2.5H41v1.5a2.5 2.5 0 002.5 2.5H45zm-12 0v-1.5a2.5 2.5 0 00-2.5-2.5H29v1.5a2.5 2.5 0 002.5 2.5H33zm-2.715-9.991C31.158 16.06 33.92 14 37 14c3.078 0 5.84 2.06 6.709 5l-13.424.009zM41 0a6 6 0 00-6 6v4.193c-3.998.75-7.371 3.695-8.551 7.681a3.946 3.946 0 00.633 3.513A3.977 3.977 0 0030.295 23h13.408a3.974 3.974 0 003.213-1.613 3.946 3.946 0 00.633-3.513c-1.18-3.986-4.553-6.931-8.549-7.681V6a2 2 0 012-2h4.5A2.5 2.5 0 0048 1.5V0h-7zm2.576 43.82c-.572 0-1.017-.192-1.334-.579-.314-.386-.472-1.1-.472-2.141 0-.841.13-1.458.396-1.851.35-.529.855-.794 1.514-.794.289 0 .552.061.787.18.236.12.433.291.597.512.098.133.192.342.282.628l2.564-.57c-.33-.991-.832-1.726-1.51-2.205-.677-.479-1.607-.718-2.791-.718-1.513 0-2.683.418-3.509 1.253-.829.835-1.241 2.029-1.241 3.584 0 1.166.235 2.122.705 2.869.469.748 1.028 1.27 1.676 1.567.647.297 1.483.445 2.502.445.842 0 1.537-.122 2.08-.365a3.501 3.501 0 001.369-1.083c.368-.479.637-1.075.809-1.789l-2.545-.769c-.129.594-.334 1.047-.619 1.359-.283.312-.703.467-1.26.467zm-8.84-2.124l-1.457-5.254h-2.748l-1.453 5.261-.992-5.261h-2.76l2.092 9.398h2.848l1.64-5.917 1.649 5.917h2.847l2.073-9.398H35.73l-.994 5.254zM8.5 32A2.5 2.5 0 006 34.5V36h16v-1.5a2.5 2.5 0 00-2.5-2.5h-11zm0-23A2.5 2.5 0 006 11.5V13h16v-1.5A2.5 2.5 0 0019.5 9h-11zM4 8.5A2.5 2.5 0 001.5 6H0v42h1.5A2.5 2.5 0 004 45.5V42h15.5a2.5 2.5 0 002.5-2.5V38H4V19h15.5a2.5 2.5 0 002.5-2.5V15H4V8.5z" fill="var(--icon-color,#333)"/>
    </g>
</svg>
