<svg viewBox="0 0 48 48" xmlns="http://www.w3.org/2000/svg" id="icon">
    <g fill="none" fill-rule="evenodd">
        <path d="M0 0h48v48H0z"/>
        <path d="M42 29v11a2 2 0 01-2 2H8a2 2 0 01-2-2V18h36v11zM6 12a2 2 0 012-2h32a2 2 0 012 2v2H6v-2zm34-6h-4V2h-1.5A2.5 2.5 0 0032 4.5V6H16V2h-1.5A2.5 2.5 0 0012 4.5V6H8c-3.313 0-6 2.688-6 6v28a6 6 0 006 6h32c3.312 0 6-2.687 6-6V12c0-3.312-2.688-6-6-6zM14 24.5V23h-1.5a2.5 2.5 0 00-2.5 2.5V27h1.5a2.5 2.5 0 002.5-2.5m8 0V23h-1.5a2.5 2.5 0 00-2.5 2.5V27h1.5a2.5 2.5 0 002.5-2.5m8 0V23h-1.5a2.5 2.5 0 00-2.5 2.5V27h1.5a2.5 2.5 0 002.5-2.5m8 0V23h-1.5a2.5 2.5 0 00-2.5 2.5V27h1.5a2.5 2.5 0 002.5-2.5m-16 10V33h-1.5a2.5 2.5 0 00-2.5 2.5V37h1.5a2.5 2.5 0 002.5-2.5m8 0V33h-1.5a2.5 2.5 0 00-2.5 2.5V37h1.5a2.5 2.5 0 002.5-2.5m8 0V33h-1.5a2.5 2.5 0 00-2.5 2.5V37h1.5a2.5 2.5 0 002.5-2.5m-24 0V33h-1.5a2.5 2.5 0 00-2.5 2.5V37h1.5a2.5 2.5 0 002.5-2.5" fill="var(--icon-color,#333)"/>
    </g>
</svg>
