<svg viewBox="0 0 48 48" xmlns="http://www.w3.org/2000/svg" id="icon">
    <g fill="none" fill-rule="evenodd">
        <path d="M0 48h48V0H0z"/>
        <path d="M43.912 14l-2.356-6.931A6.002 6.002 0 0035.875 3h-23.75a6 6 0 00-5.681 4.069L4.088 14H0v1.5A2.5 2.5 0 002.5 18h1.588a4 4 0 003.787-2.712l2.356-6.932A2 2 0 0112.125 7h23.75a2 2 0 011.893 1.356l2.357 6.932A4 4 0 0043.912 18H45.5a2.5 2.5 0 002.5-2.5V14h-4.088zM12.529 28a2 2 0 01-1.414-.586 2.5 2.5 0 00-3.535 0l-1.061 1.061 1.768 1.768A6 6 0 0012.53 32H17v-1.5a2.5 2.5 0 00-2.5-2.5h-1.971zm24.356-.586a2 2 0 01-1.414.586H33.5a2.5 2.5 0 00-2.5 2.5V32h4.471c1.59 0 3.117-.632 4.242-1.757l1.767-1.768-1.059-1.061a2.501 2.501 0 00-3.536 0zM42 20H6v1.5A2.5 2.5 0 008.5 24h31a2.5 2.5 0 002.5-2.5V20zm2 2.5V39a2 2 0 01-2 2h-2a2 2 0 01-2-2 4 4 0 00-4-4H14a4 4 0 00-4 4 2 2 0 01-2 2H6a2 2 0 01-2-2V22.5A2.5 2.5 0 001.5 20H0v19a6 6 0 006 6h2a6 6 0 006-6h20a6 6 0 006 6h2a6 6 0 006-6V20h-1.5a2.5 2.5 0 00-2.5 2.5z" fill="var(--icon-color,#333)"/>
    </g>
</svg>
