<svg viewBox="0 0 48 48" xmlns="http://www.w3.org/2000/svg" id="icon">
    <g fill="none" fill-rule="evenodd">
        <path d="M0 0h48v48H0z"/>
        <path d="M44 40H4L3.98 6.609C8.549 4.975 16.032 4 24 4c7.967 0 15.45.975 20 2.607V40zm1.366-37.157C40.314 1.036 32.526 0 24 0 15.473 0 7.685 1.036 2.633 2.843A3.998 3.998 0 000 6.607V40a4 4 0 004 4v1.5A2.5 2.5 0 006.5 48H8v-4h32v4h1.5a2.5 2.5 0 002.5-2.5V44a4 4 0 004-4V6.607c0-1.688-1.059-3.2-2.634-3.764zM12.365 12h-.006l-.023.068v.001l-.95 2.796L11 16H7v1.5A2.5 2.5 0 009.5 20H11a4 4 0 003.787-2.712l1.337-3.933A2 2 0 0118.018 12h11.964a2 2 0 011.893 1.355l1.337 3.933A4 4 0 0036.999 20H38.5a2.5 2.5 0 002.5-2.5V16h-4l-.387-1.135-.95-2.796-.002-.005L35.64 12h-.006a5.998 5.998 0 00-5.652-4H18.017a5.999 5.999 0 00-5.652 4zM32.5 26a2.5 2.5 0 002.5-2.5V22H13v1.5a2.5 2.5 0 002.5 2.5h17zm4.5-1.5V32a2 2 0 01-4 0 4 4 0 00-4-4H19a4 4 0 00-4 4 2 2 0 01-4 0v-7.5A2.5 2.5 0 008.5 22H7v10a6 6 0 0012 0h10a6 6 0 0012 0V22h-1.5a2.5 2.5 0 00-2.5 2.5z" fill="var(--icon-color,#333)"/>
    </g>
</svg>
