<svg viewBox="0 0 48 48" xmlns="http://www.w3.org/2000/svg" id="icon">
    <g fill="none" fill-rule="evenodd">
        <path d="M0 0h48v48H0z"/>
        <path d="M41.04 3.36l-.58-.59a9.55 9.55 0 00-13.42 0l-9.74 9.68a9.54 9.54 0 00-.29 13.14l.09.09a.46.46 0 01.07.07l.58.59 1.7 1.71 1.06-1.06a2.49 2.49 0 00.07-3.46l-.05-.05-.51-.51a5.52 5.52 0 010-7.77l9.83-9.62a5.53 5.53 0 017.77 0l.61.6a5.51 5.51 0 010 7.77l-3.79 3.78-1.11 1.1a2.5 2.5 0 000 3.53l1.05 1.07 1.82-1.8 4.87-4.84a9.54 9.54 0 00-.03-13.43zM26.76 18.05l-2.53-2.57-1.06 1.06a2.5 2.5 0 000 3.53l.55.55a5.51 5.51 0 01-.05 7.73l-9.72 9.67a5.53 5.53 0 01-7.78 0l-.59-.54a5.54 5.54 0 010-7.78l3.8-3.77 1.07-1.06a2.5 2.5 0 000-3.53l-1.06-1.07-1.81 1.8-1 .99-3.8 3.77a9.54 9.54 0 000 13.42l.59.59a9.51 9.51 0 0013.42 0l9.74-9.67a9.55 9.55 0 00.28-13.16z" fill="var(--icon-color,#333)"/>
    </g>
</svg>
