<svg viewBox="0 0 48 48" xmlns="http://www.w3.org/2000/svg" id="icon">
    <g fill="none" fill-rule="evenodd">
        <path d="M0 0h48v48H0z"/>
        <path d="M15.037 21c.64-.004 1.28.232 1.768.722L29.001 34h10.45l-2.683-2.682a2.5 2.5 0 010-3.536l1.061-1.062L47 35.892l-9.171 9.172-1.061-1.062a2.5 2.5 0 010-3.535L39.234 38H28.062c-.735 0-1.279-.575-1.708-1.007L14.443 25H2v-4zM44 7v1.5a2.5 2.5 0 01-2.5 2.501h-8.646l-7.276 7.275a2.505 2.505 0 01-3.535 0l-1.06-1.06 9.494-9.496a2.467 2.467 0 011.917-.71l10.361-.009H44z" fill="var(--icon-color,#333)"/>
    </g>
</svg>
