<svg viewBox="0 0 48 48" xmlns="http://www.w3.org/2000/svg" id="icon">
    <g fill="none" fill-rule="evenodd">
        <path d="M0 0h48v48H0z"/>
        <path d="M30 22h1.5a2.5 2.5 0 002.5-2.5V18h-1.5a2.5 2.5 0 00-2.5 2.5V22zm-8-1.5V22h1.5a2.5 2.5 0 002.5-2.5V18h-1.5a2.5 2.5 0 00-2.5 2.5zm-8 0V22h1.5a2.5 2.5 0 002.5-2.5V18h-1.5a2.5 2.5 0 00-2.5 2.5zM40 3h-6v1.5A2.5 2.5 0 0036.5 7H40a4 4 0 014 4v18a4 4 0 01-4 4H28.42a4 4 0 00-2.829 1.171L18 41.763V37a4 4 0 00-4-4H8a4 4 0 01-4-4V11a4 4 0 014-4h19.5A2.5 2.5 0 0030 4.5V3H8a8 8 0 00-8 8v18a8 8 0 008 8h6v4.572c0 1.544.788 3.04 2.162 3.744a3.987 3.987 0 004.666-.725L28.419 37H40a8 8 0 008-8V11a8 8 0 00-8-8z" fill="var(--icon-color,#333)"/>
    </g>
</svg>
