<svg viewBox="0 0 48 48" xmlns="http://www.w3.org/2000/svg" id="icon">
    <g fill="none" fill-rule="evenodd">
        <path d="M0 0h48v48H0z"/>
        <path d="M40.652 12.829c2.52-2.52.734-6.83-2.828-6.83h-1.607l4.207-4.206-1.06-1.06a2.498 2.498 0 00-3.535 0l-14.741 14.74 1.06 1.06a2.498 2.498 0 003.535 0L32.217 10h5.607L23.916 23.908 10.007 10h8.407a2.5 2.5 0 002.5-2.5V6H10.007c-3.562 0-5.347 4.309-2.828 6.829l14.737 14.736V44h-7.5a2.5 2.5 0 00-2.5 2.5V48h24v-1.5a2.5 2.5 0 00-2.5-2.5h-7.5V27.565l14.736-14.736z" fill="var(--icon-color,#333)"/>
    </g>
</svg>
