<svg viewBox="0 0 48 48" xmlns="http://www.w3.org/2000/svg" id="icon">
    <g fill="none" fill-rule="evenodd">
        <path d="M0 0h48v48H0z"/>
        <path d="M24.001 30l10.201 10.201-1.065 1.066a2.51 2.51 0 01-3.455.077l-.009.009-5.672-5.671-5.672 5.671-.009-.009a2.51 2.51 0 01-3.455-.077L13.8 40.201 24.001 30zm5.68-23.348a2.507 2.507 0 013.454.077L34.2 7.796 24 18 13.8 7.796l1.065-1.067a2.507 2.507 0 013.455-.077l.009-.01L24 12.317l5.671-5.675z" fill="var(--icon-color,#333)"/>
    </g>
</svg>
