<svg viewBox="0 0 48 48" xmlns="http://www.w3.org/2000/svg" id="icon">
    <g fill="none" fill-rule="evenodd">
        <path d="M0 0h48v48H0z"/>
        <path d="M19.051 17.604l1.061-1.06a2.5 2.5 0 000-3.536l-.354-.354.354-.353a2.501 2.501 0 000-3.536l-1.061-1.06-2.121 2.121a3.999 3.999 0 000 5.657l2.121 2.121zm-9.546-.354l-1.061 1.061L27.89 37.756a2.498 2.498 0 003.535 0l1.061-1.06L13.04 17.25a2.5 2.5 0 00-3.535 0zm33.878 13.956L31.206 43.382a1.999 1.999 0 01-2.829 0L4.586 19.592a2 2 0 010-2.829L16.764 4.586a2 2 0 012.828 0l23.791 23.791a2 2 0 010 2.83zm2.892-5.594L22.42 1.757a6 6 0 00-8.485 0L1.758 13.934a5.998 5.998 0 000 8.485L25.549 46.21a5.998 5.998 0 008.485 0l12.177-12.176c2.344-2.344 2.406-6.079.064-8.422z" fill="var(--icon-color,#333)"/>
    </g>
</svg>
