<svg viewBox="0 0 48 48" xmlns="http://www.w3.org/2000/svg" id="icon">
    <g fill="none" fill-rule="evenodd">
        <path d="M0 48h48V0H0z"/>
        <path d="M32.98 15a3.5 3.5 0 100-7 3.5 3.5 0 000 7zm11.115 22.698A5.961 5.961 0 0038.24 33h-6.286c-.944 0-1.759-.66-1.955-1.583l-1.704-8.001a1.989 1.989 0 01.402-1.674A1.994 1.994 0 0130.251 21h1.9c.943 0 1.76.66 1.957 1.584l.143.67A6 6 0 0040.12 28h3.861v-1.5a2.5 2.5 0 00-2.5-2.5h-1.36a1.998 1.998 0 01-1.956-1.581l-.145-.674A6.001 6.001 0 0032.152 17h-1.9c-2.169 0-4.168 1.153-5.259 3.104-.734 1.311-.882 2.871-.57 4.339l.091.426A12 12 0 0016.98 36c0 6.617 5.383 12 12 12 3.783 0 7.146-1.772 9.348-4.516l-1.403-1.123c-.916-.733-2.196-.701-3.13.01A7.912 7.912 0 0128.98 44c-4.41 0-8-3.589-8-8 0-3.057 1.748-5.774 4.39-7.114l.715 3.364a6 6 0 005.87 4.75h6.283a2 2 0 011.953 1.566l1.663 7.477A2.5 2.5 0 0044.294 48h2.108l-2.307-10.302zM16.883 23h2.067a2.5 2.5 0 002.445-1.979l.975-4.576c.313-1.47.164-3.031-.57-4.342A5.992 5.992 0 0016.543 9H7.451c-2.167 0-4.166 1.151-5.257 3.103-.734 1.311-.883 2.872-.569 4.342L4.14 28.25a6.033 6.033 0 005.742 4.749h.126V45.5a2.5 2.5 0 002.5 2.5h1.5V33a3.999 3.999 0 00-4.028-4c-.934.006-1.732-.67-1.928-1.583L5.495 15.416a1.991 1.991 0 01.401-1.675c.381-.47.948-.741 1.555-.741h9.092c.607 0 1.174.271 1.555.741.382.472.528 1.082.402 1.675L16.883 23zM11.998 7a3.5 3.5 0 10-.001-7.001A3.5 3.5 0 0011.998 7z" fill="var(--icon-color,#333)"/>
    </g>
</svg>
