<svg viewBox="0 0 48 48" xmlns="http://www.w3.org/2000/svg" id="icon">
    <g fill="none" fill-rule="evenodd">
        <path d="M0 0h48v48H0z"/>
        <path d="M26.54.026C38.582 1.299 48 11.51 48 23.885c0 13.234-10.767 24-24 24s-24-10.766-24-24c0-5.88 2.136-11.264 5.662-15.441l1.465-1.85 1.176.933a2.493 2.493 0 01.505 3.358 19.873 19.873 0 00-4.697 11h3.89v1.5a2.5 2.5 0 01-2.5 2.5h-1.4C5.042 35.32 12.565 42.842 22 43.784v-3.9h1.5a2.5 2.5 0 012.5 2.5v1.4c9.435-.942 16.957-8.464 17.898-17.9H42.5a2.5 2.5 0 01-2.5-2.5v-1.5h3.896C42.956 12.453 35.436 4.929 26 3.988v7.398a2.5 2.5 0 01-2.5 2.5H22v-9.9c0-2.21 1.8-4.24 4.54-3.96zm-13.621 14.52a2.498 2.498 0 013.534 0L26 24.092l-1.06 1.06a2.5 2.5 0 01-3.537 0l-9.545-9.545 1.06-1.06z" fill="var(--icon-color,#333)"/>
    </g>
</svg>
