<svg viewBox="0 0 48 32" fill="none" xmlns="http://www.w3.org/2000/svg" id="icon">
    <g fill-rule="evenodd" clip-rule="evenodd">
        <path d="M22.252 17.079L7 7.532v3.335c0 .861.443 1.662 1.174 2.119l11.955 7.484a8.01 8.01 0 004.244 1.21 8.015 8.015 0 004.246-1.21l11.207-7.016A2.499 2.499 0 0041 11.335V8l-14.504 9.079a4.001 4.001 0 01-4.244 0zM44 26a2 2 0 01-2 2H6a2 2 0 01-2-2V6a2 2 0 012-2h36a2 2 0 012 2v20zM42.09 0H6a6 6 0 00-6 6v20a6 6 0 006 6h36a6 6 0 006-6V6c0-3.314-2.597-6-5.91-6z" fill="var(--icon-color,#333)"/>
    </g>
</svg>
