<svg viewBox="0 0 48 48" xmlns="http://www.w3.org/2000/svg" id="icon">
    <g fill="none" fill-rule="evenodd">
        <path d="M0 0h48v48H0z"/>
        <path d="M42.314 8.514C45.856 12.697 48 18.102 48 24c0 13.233-10.768 24-24 24C10.766 48 0 37.233 0 24S10.766 0 24 0a23.884 23.884 0 0115.485 5.686l-1.321 1.321c-.853.853-2.178.952-3.184.288A19.872 19.872 0 0024 4C12.971 4 4 12.972 4 24s8.971 20 20 20c11.027 0 20-8.972 20-20 0-4.053-1.215-7.827-3.296-10.981-.664-1.006-.564-2.331.288-3.184l1.322-1.321zM24 27.939c-2.058 0-3.396.174-5.147.643a13.844 13.844 0 00-6.154 3.526c-.783.77-2.002.887-2.954.337L8 31.437a17.903 17.903 0 019.818-6.719C19.89 24.163 21.669 24 24 24c2.331 0 4.11.163 6.182.718 4.1 1.098 7.48 3.54 9.818 6.719l-1.745 1.008c-.952.55-2.17.434-2.954-.337a13.844 13.844 0 00-6.154-3.526c-1.75-.47-3.089-.643-5.147-.643zM21 16.5a3.5 3.5 0 11-7 0 3.5 3.5 0 017 0zM31.5 20a3.5 3.5 0 110-7 3.5 3.5 0 010 7z" fill="var(--icon-color,#333)"/>
    </g>
</svg>
