<svg xmlns="http://www.w3.org/2000/svg" viewBox="0 0 48 48" id="icon">
  <path fill="var(--icon-color,#333)" d="M33.29,45h-25A5.33,5.33,0,0,1,3,39.67v-25A5.33,5.33,0,0,1,8.33,9.38H17.8a4,4,0,0,1,4,4H8.33A1.33,1.33,0,0,0,7,14.71v25A1.32,1.32,0,0,0,8.33,41h25a1.33,1.33,0,0,0,1.33-1.33V26.37h0a4,4,0,0,1,4,4v9.3A5.33,5.33,0,0,1,33.29,45Z"/>
  <path fill="var(--icon-color,#333)" fill-rule="even-odd" d="M44.85,3.06h-17V4.57a2.5,2.5,0,0,0,2.5,2.5H38L22.54,22.54l2.83,2.83L40.85,9.89v7.65a2.5,2.5,0,0,0,2.5,2.5h1.5v-17Z"/>
</svg>