<svg viewBox="0 0 48 48" xmlns="http://www.w3.org/2000/svg" id="icon">
    <g fill="none" fill-rule="evenodd">
        <path d="M0 0h48v48H0z"/>
        <path d="M15.178 12.828a4.007 4.007 0 010-5.658 4.007 4.007 0 015.659 0 4.007 4.007 0 010 5.658c-1.58 1.58-4.1 1.58-5.659 0zM12 34.003V16.007H8v17.996C8 39.52 12.479 44 17.997 44h11.997v-3.999H17.997A5.99 5.99 0 0112 34.003zm27.993 8.138L37.132 45l-6.998-6.998H19.997a5.99 5.99 0 01-5.999-5.999V20.506c0-2.48 2.02-4.499 4.5-4.499h.06c.68 0 1.339.18 1.919.46.52.24 1 .58 1.38 1l2.799 3.1c2.12 2.339 6.018 4.118 9.337 4.078v4.32c-3.799 0-8.198-2.02-10.997-4.32v7.358h6.858l10.138 10.138zm2.999-32.132l-3.999 3.999v-3H27.995V9.01h10.997v-3l3.999 3.999z" fill="var(--icon-color,#333)"/>
    </g>
</svg>
