<svg viewBox="0 0 48 42" xmlns="http://www.w3.org/2000/svg" id="icon">
    <g fill="none" fill-rule="evenodd">
        <path d="M0-4h48v48H0z"/>
        <path d="M47.862 16.504s-.14 1.898-.22 2.527c-.123.968-.415 1.919-.752 2.844-2.934 8.063-14.194 15.672-20.644 19.49a4.215 4.215 0 01-3.6.338 4.214 4.214 0 01-2.54-2.573c-1.57-4.464-.885-2.897.675-1.994.911.527 1.33-.44 1.864 1.08.055.155 1.447-.211 1.586-.293 3.762-2.227 16.245-10.064 18.918-17.41.254-.696.453-1.416.577-2.138.25-1.23 1.373-2.11 2.649-2zM37.353 1.296c4.035 1.469 7.405 4.357 9.042 8.33.24.58.862 2.358.862 2.358l-1.397.536a2.478 2.478 0 01-3.21-1.445 11.887 11.887 0 00-6.665-6.02C32.26 3.7 28.287 4.316 25.208 6.37c-.281.188-.724.533-1.328 1.034a192.7 192.7 0 01-1.262-2.156c-.418-.734-1.064-1.14-.35-1.677C26.456.423 32.09-.62 37.353 1.296z" fill="var(--icon-color,#333)"/>
        <path d="M23.768 37.924C20.006 35.697 7.525 27.86 4.851 20.514c-2.278-6.258.936-13.192 7.163-15.458a11.887 11.887 0 018.976.327c.992.503 1.955 1.177 2.89 2.021.094-1.559.26-2.551.497-2.978l.726-1.308s-1.62-.962-2.176-1.253c-3.808-1.991-8.246-2.037-12.28-.568-8.29 3.017-12.57 12.248-9.537 20.578 2.935 8.064 14.194 15.672 20.643 19.49a4.214 4.214 0 003.599.339 4.215 4.215 0 002.542-2.574c.948-2.698-.64-.827-1.451-.793-1.313.056-2.587-.362-2.675-.413z" fill="var(--icon-color,#333)"/>
    </g>
</svg>
