<svg viewBox="0 0 48 48" xmlns="http://www.w3.org/2000/svg" id="icon">
    <g fill="none" fill-rule="evenodd">
        <path d="M0 48h48V0H0z"/>
        <path d="M40 44h-9v-9a6 6 0 00-6-6h-2a6 6 0 00-6 6v9H8V22.5A2.5 2.5 0 005.5 20H4.007L24 4.5 43.993 20H42.5a2.5 2.5 0 00-2.5 2.5V44zm4-20.001c3.558-.005 5.338-4.31 2.821-6.828L25.79.66c-1.112-.876-2.519-.885-3.624 0C22.05.753 1.179 17.171 1.179 17.171-1.338 19.689.442 23.994 4 23.999V44a2.5 2.5 0 00-2.5 2.5V48H17a4 4 0 004-4v-9a2 2 0 012-2h2a2 2 0 012 2v9a4 4 0 004 4h15.499v-1.5a2.5 2.5 0 00-2.5-2.5H44V23.999z" fill="var(--icon-color,#333)"/>
    </g>
</svg>
