<svg viewBox="0 0 18 18" xmlns="http://www.w3.org/2000/svg" id="icon">
    <g fill="none" fill-rule="evenodd">
        <path d="M-625-347h48v48h-48z"/>
        <path d="M13.033 18H4.967A4.972 4.972 0 010 13.033V4.967A4.972 4.972 0 014.967 0h8.066A4.972 4.972 0 0118 4.967v8.066A4.972 4.972 0 0113.033 18zm3.37-4.967V4.967a3.374 3.374 0 00-3.37-3.37H4.967a3.374 3.374 0 00-3.37 3.37v8.066a3.374 3.374 0 003.37 3.37h8.066a3.374 3.374 0 003.37-3.37zm-2.57-7.683a1.18 1.18 0 01-.828-.343 1.18 1.18 0 01-.344-.828 1.177 1.177 0 011.172-1.171 1.173 1.173 0 011.171 1.171c0 .308-.125.61-.343.828a1.18 1.18 0 01-.828.343zM9 13.638A4.642 4.642 0 014.362 9 4.643 4.643 0 019 4.362 4.644 4.644 0 0113.638 9 4.643 4.643 0 019 13.638zm0-7.679A3.044 3.044 0 005.959 9 3.044 3.044 0 009 12.041 3.044 3.044 0 0012.041 9 3.044 3.044 0 009 5.959z" fill="var(--icon-color,#333)"/>
    </g>
</svg>
