<svg viewBox="0 0 48 48" xmlns="http://www.w3.org/2000/svg" id="icon">
    <g fill="none" fill-rule="evenodd">
        <path d="M0 48h48V0H0z"/>
        <path d="M42.038 7.5V6h-8.5a2.5 2.5 0 00-2.5 2.5V10h8.5a2.5 2.5 0 002.5-2.5zM15.573 9H6.48c-2.168 0-4.166 1.151-5.257 3.103-.733 1.311-.882 2.872-.57 4.342L3.17 28.25a6.032 6.032 0 005.742 4.749h.126V45.5a2.5 2.5 0 002.5 2.5h1.5V33a4 4 0 00-4.028-4c-.934.006-1.734-.67-1.928-1.583L4.525 15.416a1.992 1.992 0 01.402-1.675c.38-.47.948-.741 1.554-.741h9.092c.608 0 1.174.271 1.555.741.383.472.527 1.082.402 1.675L15.914 23h2.066c1.18 0 2.2-.825 2.446-1.979l.974-4.576c.314-1.47.164-3.031-.57-4.342A5.993 5.993 0 0015.574 9zm-4.546-2a3.5 3.5 0 100-6.999 3.5 3.5 0 000 6.999zm18.01 5h15V4h-15v8zm15-12h-15a4 4 0 00-4 4v41.5a2.5 2.5 0 002.5 2.5h1.5V16h15a4 4 0 004-4V4a4 4 0 00-4-4z" fill="var(--icon-color,#333)"/>
    </g>
</svg>
