<svg viewBox="0 0 48 48" xmlns="http://www.w3.org/2000/svg" id="icon">
    <g fill="none" fill-rule="evenodd">
        <path d="M0 48h48V0H0z"/>
        <path d="M29.5 22H31v-3a6 6 0 00-6-6h-2a6 6 0 00-6 6v3h1.5a2.5 2.5 0 002.5-2.5V19a2 2 0 012-2h2a2 2 0 012 2v.5a2.5 2.5 0 002.5 2.5zM10 10c-1.654 0-3-1.346-3-3s1.346-3 3-3 3 1.346 3 3-1.346 3-3 3zm6.705-5C15.842 2.113 13.164 0 10 0 6.141 0 3 3.141 3 7s3.141 7 7 7c3.164 0 5.842-2.112 6.705-5H35v2.5a2.5 2.5 0 002.5 2.5H39V9h2.5A2.5 2.5 0 0044 6.5V5H16.705zM40 42c0 1.103-.897 2-2 2H10c-1.103 0-2-.897-2-2V30c0-1.103.897-2 2-2h28c1.103 0 2 .897 2 2v12zm-2-18H10c-3.309 0-6 2.691-6 6v12c0 3.309 2.691 6 6 6h28c3.309 0 6-2.691 6-6V30c0-3.309-2.691-6-6-6z" fill="var(--icon-color,#333)"/>
    </g>
</svg>
