<svg viewBox="0 0 48 48" xmlns="http://www.w3.org/2000/svg" id="icon">
    <g fill="none" fill-rule="evenodd">
        <path d="M0 0h48v48H0z"/>
        <path d="M20 8.5V8a2 2 0 012-2h4a2 2 0 012 2v.5a2.5 2.5 0 002.5 2.5H32V8a6 6 0 00-6-6h-4a6 6 0 00-6 6v3h1.5A2.5 2.5 0 0020 8.5zM44 36c0 1.103-.897 2-2 2h-6V19h-1.5a2.5 2.5 0 00-2.5 2.5V38H16V21.5a2.5 2.5 0 00-2.5-2.5H12v19H6c-1.103 0-2-.897-2-2V19c0-1.103.897-2 2-2h36c1.103 0 2 .897 2 2v17zm-2-23H6c-3.309 0-6 2.691-6 6v17c0 3.309 2.691 6 6 6h2v1.5a2.5 2.5 0 002.5 2.5H12v-4h24v4h1.5a2.5 2.5 0 002.5-2.5V42h2c3.309 0 6-2.691 6-6V19c0-3.309-2.691-6-6-6z" fill="var(--icon-color,#333)"/>
    </g>
</svg>
