<svg viewBox="0 0 48 48" xmlns="http://www.w3.org/2000/svg" id="icon">
    <g fill="none" fill-rule="evenodd">
        <path d="M0 0h48v48H0z"/>
        <path d="M21 12.344V10c0-1.103.896-2 2-2h2c1.104 0 2 .897 2 2v2.344a23.78 23.78 0 00-3-.196 23.78 23.78 0 00-3 .196zM25 4c3.312 0 6 2.688 6 6v3.2c9.593 2.958 16.698 11.818 16.987 22.3H48V40c0 2.21-1.79 4-4 4h-4.55v-.001H24.5l.001-1.5c0-1.381 1.118-2.5 2.499-2.5h17v-4.118C43.849 25 34.876 16.148 24 16.148S4.151 25 4 35.88V40h12a4 4 0 014 4H4c-2.21 0-4-1.79-4-4v-4.5h.013C.302 25.018 7.407 16.158 17 13.2V10c0-3.312 2.687-6 6-6zm-5 20v1.5a2.5 2.5 0 01-2.5 2.5l-.5-.001v.501a2.5 2.5 0 01-2.5 2.5H13v-3c0-2.21 1.79-4.001 4-4h3z" fill="var(--icon-color,#333)"/>
    </g>
</svg>
