<svg viewBox="0 0 48 48" xmlns="http://www.w3.org/2000/svg" id="icon">
    <g fill="none" fill-rule="evenodd">
        <path d="M0 0h48v48H0z"/>
        <path d="M42 0a6 6 0 016 6v36a6 6 0 01-6 6H6a6 6 0 01-6-6v-2.5A2.5 2.5 0 012.5 37H4v5a2 2 0 002 2h36a2 2 0 002-2V6a2 2 0 00-2-2H6a2 2 0 00-2 2v27H2.5A2.5 2.5 0 010 30.5V6a6 6 0 016-6zM18.13 13.83a3.962 3.962 0 013.965 3.418L24 30.169l1.904-12.92a3.957 3.957 0 013.764-3.414c1.936-.066 3.611 1.155 4.076 3.035l4.223 17.028H35.8A2.499 2.499 0 0133.374 32l-.6-2.418-2.914-11.75-1.904 12.92c-.295 2.012-1.922 3.416-3.955 3.418H24c-2.033 0-3.66-1.405-3.957-3.417L18.138 17.83l-2.763 11.146-.749 3.021a2.503 2.503 0 01-2.427 1.899h-2.165l.88-3.551 3.343-13.477a3.954 3.954 0 013.873-3.038z" fill="var(--icon-color,#333)"/>
    </g>
</svg>
