<svg viewBox="0 0 48 48" xmlns="http://www.w3.org/2000/svg" id="icon">
    <g fill="none" fill-rule="evenodd">
        <path d="M0 0h48v48H0z"/>
        <path d="M35 20c-.06 0-.1.02-.16.02L26.82 12H18v4h7.18l4 4h-16.2C8.02 20 4 24.04 4 29c0 4.98 4.02 9 9 9 4.44 0 8.12-3.24 8.84-7.46L26.08 28c-.04.34-.08.66-.08 1 0 4.98 4.02 9 9 9s9-4.02 9-9-4.02-9-9-9zM17.68 30.52A4.977 4.977 0 0112.94 34c-2.76 0-5-2.24-5-5s2.24-5 5-5c2.24 0 4.1 1.48 4.74 3.5H12v3l5.68.02zM34.94 34c-2.76 0-5-2.24-5-5s2.24-5 5-5 5 2.24 5 5-2.24 5-5 5z" fill="var(--icon-color,#333)"/>
    </g>
</svg>
