<svg viewBox="0 0 48 48" xmlns="http://www.w3.org/2000/svg" id="icon">
    <g fill="none" fill-rule="evenodd">
        <path d="M0 0h48v48H0z"/>
        <path d="M11.004 37.447A5.995 5.995 0 0114 32.315V21.447c.076-5.44 4.562-9.866 10-9.866 5.439 0 9.924 4.426 10 9.866v10.868a5.993 5.993 0 012.996 5.132H11.004zm12.939 4.973a2 2 0 01-1.704-.973h3.408a2 2 0 01-1.704.973zM41 37.441a10.001 10.001 0 00-3-7.076s-.018-9.38-.033-9.49c-.355-6.914-5.781-12.549-12.591-13.225A2.987 2.987 0 0027 5a3 3 0 00-6 0c0 1.157.663 2.15 1.624 2.65-6.81.676-12.237 6.311-12.591 13.225-.014.11-.033 9.49-.033 9.49a10.001 10.001 0 00-3 7.076v.006c-.011 2.2 1.776 4 4.009 4h7.03c.494 2.814 2.964 4.973 5.904 4.973s5.41-2.159 5.904-4.973h7.144c2.232 0 4.019-1.8 4.009-4v-.005zM23.886 14.447s-2.05.334-2.688.587c-2.198.87-3.993 2.937-4.76 5.425l-.412 2.63 1.48.243a2.492 2.492 0 002.807-1.82c.43-1.276 1.294-2.279 2.403-2.769a2.495 2.495 0 001.484-2.829l-.314-1.467z" fill="var(--icon-color,#333)"/>
    </g>
</svg>
