<svg viewBox="0 0 48 48" xmlns="http://www.w3.org/2000/svg" id="icon">
    <g fill="none" fill-rule="evenodd">
        <path d="M0 0h48v48H0z"/>
        <path d="M9.125 8.61l.13.123 2.597 2.614.001-.002h.003l3.09 3.11-.002.001h-.002l6.203 6.246h.002l.002-.001 3.827 3.853h-.005l11.52 11.598-1.053 1.06a2.47 2.47 0 01-3.379.121l-.13-.121-2.64-2.657L23.883 40l-5.954-5.994a8.375 8.375 0 018.594-2.055l.28.099-7.005-7.054a17.718 17.718 0 00-5.208 2.148l-.438.279a2.463 2.463 0 01-3.356-.373l-.11-.14-.887-1.203 1.958-1.49a21.47 21.47 0 014.286-2.226l.564-.208-5.625-5.663a28.82 28.82 0 00-4.541 2.846l-.057.04c-.03.025-.095.066-.095.066a2.46 2.46 0 01-3.222-.306l-.117-.133L2 17.478l1.86-1.563a31.735 31.735 0 013.566-2.402l.618-.351L4.695 9.79l1.052-1.058a2.466 2.466 0 013.378-.122zM26.78 20.72a21.58 21.58 0 018.785 3.207l.442.29 1.96 1.49-.889 1.204a2.471 2.471 0 01-3.47.518l-.372-.234-.06-.037-6.396-6.438zM23.882 9.028c7.437 0 14.45 2.451 20.278 7.087l1.84 1.58-.959 1.146a2.46 2.46 0 01-3.34.408l-.153-.108c-5.09-3.998-11.194-6.117-17.666-6.117-1.49 0-2.958.123-4.403.346L16.1 9.968a32.66 32.66 0 017.782-.94z" fill="var(--icon-color,#333)"/>
    </g>
</svg>
