<svg viewBox="0 0 48 48" xmlns="http://www.w3.org/2000/svg" id="icon">
    <g fill="none" fill-rule="evenodd">
        <path d="M0 0h48v48H0z"/>
        <path d="M9.529 9.54a2.498 2.498 0 00-3.535 0L4.932 10.6l2.766 2.767a24.654 24.654 0 00-6.609 9.448l-.289.734.289.733c3.73 9.468 12.704 15.585 22.86 15.585 3.035 0 5.959-.557 8.674-1.575l1.746 1.746a2.502 2.502 0 003.535 0l1.062-1.062L9.529 9.54zm1.002 6.66l5.615 5.615a7.924 7.924 0 00-.197 1.734c0 4.41 3.589 8 8 8 .597 0 1.175-.073 1.733-.198l3.767 3.766c-1.761.484-3.604.75-5.5.75-8.237 0-15.545-4.81-18.834-12.318a20.619 20.619 0 015.416-7.35zm30.374-2.163l1.694 1.796a24.435 24.435 0 014.21 6.982l.29.733-.29.734a24.612 24.612 0 01-7 9.79l-2.854-2.854a20.53 20.53 0 005.828-7.67 20.635 20.635 0 00-3.219-5.118l.01-.01a2.491 2.491 0 01.24-3.354l1.091-1.03zM23.95 15.548c4.41 0 8 3.589 8 8 0 .807-.122 1.584-.345 2.319l-9.973-9.973a7.928 7.928 0 012.318-.346zm0-8.318c3.962 0 7.9.968 11.388 2.8l-.008.015 2.128 1.241-.756 1.296a2.5 2.5 0 01-3.419.9 20.214 20.214 0 00-9.333-2.252 20.64 20.64 0 00-6.067.915L14.76 9.022a24.512 24.512 0 019.19-1.792z" fill="var(--icon-color,#333)"/>
    </g>
</svg>
