<svg viewBox="0 0 48 48" xmlns="http://www.w3.org/2000/svg" id="icon">
    <g fill="none" fill-rule="evenodd">
        <path d="M0 0h48v48H0z"/>
        <path d="M27.95 24.318c0 2.206-1.794 4-4 4s-4-1.794-4-4 1.794-4 4-4 4 1.794 4 4M23.95 8c3.962 0 7.9.968 11.387 2.8l2.12 1.256-.755 1.296a2.501 2.501 0 01-3.419.9A20.29 20.29 0 0023.95 12c-8.238 0-15.545 4.809-18.834 12.318 3.289 7.51 10.596 12.319 18.834 12.319 8.237 0 15.545-4.81 18.834-12.318a20.65 20.65 0 00-3.209-5.128 2.491 2.491 0 01.239-3.355l1.092-1.03 1.698 1.793a24.588 24.588 0 014.206 6.986l.289.733-.289.734c-3.73 9.468-12.704 15.585-22.86 15.585-10.157 0-19.13-6.117-22.861-15.585L.8 24.318l.289-.733C4.82 14.117 13.793 8 23.95 8zm0 8.318c4.41 0 8 3.59 8 8 0 4.411-3.59 8-8 8-4.411 0-8-3.589-8-8 0-4.41 3.589-8 8-8z" fill="var(--icon-color,#333)"/>
    </g>
</svg>
