<svg viewBox="0 0 48 48" xmlns="http://www.w3.org/2000/svg" id="icon">
    <g fill="none" fill-rule="evenodd">
        <path d="M0 48h48V0H0z"/>
        <path d="M42.2 15.868a2.013 2.013 0 01-.716.132H27.548a2 2 0 01-1.02-.279l-7.883-4.669-2.736-6.519A2.5 2.5 0 0013.604 3h-2.676l1.26 3h-1.204a6 6 0 00-6 6v.099l-3.699 1.416a2 2 0 00-1.152 2.584l1.263 3.274A6 6 0 006.906 23h3.078v4.388c0 1.256.395 2.481 1.127 3.501l1.873 2.606V45h1.5a2.5 2.5 0 002.5-2.5v-9.004c0-.837-.263-1.654-.752-2.334l-1.87-2.606a2.002 2.002 0 01-.378-1.169V23a4 4 0 00-4-4H6.906a2 2 0 01-1.867-1.284l-.454-1.18 1.64-.627c1.581-.606 2.787-2.116 2.76-3.81V12c-.019-1.12.883-1.997 2-1.997h2.883l1.09 2.597a4.002 4.002 0 001.65 1.893l7.881 4.669a5.996 5.996 0 003.06.838h13.934c.735 0 1.462-.134 2.148-.397l2.748-1.053a2.5 2.5 0 001.605-2.334v-2.564L42.2 15.868zm4.067 8.562a2.499 2.499 0 00-3.228-1.44l-1.4.537 1.212 3.169c.088.228.133.471.133.715v17.584h1.5a2.5 2.5 0 002.5-2.5V27.41a6.01 6.01 0 00-.397-2.146l-.32-.834zm-9.445 4.117a4.001 4.001 0 00-4.668-1.384l-9.359 3.59a6.001 6.001 0 00-3.853 5.663L18.984 45l1.493-.007a2.501 2.501 0 002.488-2.52l-.023-6.097a2.005 2.005 0 011.288-1.889l9.356-3.589 3.016 4.153a2 2 0 01.382 1.175V45h1.5a2.5 2.5 0 002.5-2.5v-6.277c0-1.266-.4-2.5-1.145-3.524l-3.017-4.152z" fill="var(--icon-color,#333)"/>
    </g>
</svg>
