<svg viewBox="0 0 48 48" xmlns="http://www.w3.org/2000/svg" id="icon">
    <g fill="none" fill-rule="evenodd">
        <path d="M0 0h48v48H0z"/>
        <path d="M40.627 9.04l-1.061-1.06-6.254 6.255a4 4 0 000 5.657l.916.916-4.927 4.926c-3.772 3.77-9.904 3.77-13.676 0-3.77-3.77-3.77-9.905 0-13.675l4.927-4.927 6.75 6.75a2.499 2.499 0 003.535-.001l1.06-1.06-4.773-4.773 6.255-6.255-1.061-1.06a2.498 2.498 0 00-3.535 0L24.296 5.22l-.916-.916a4 4 0 00-5.656 0L12.797 9.23c-4.85 4.849-5.271 12.455-1.3 17.803l-2.724 2.725c-1.75 1.748-2.247 4.254-1.3 6.538.946 2.286 3.07 3.704 5.543 3.704h19.437c1.103 0 2 .898 2 2 0 1.103-.897 2-2 2h-22.5a2.5 2.5 0 00-2.5 2.5V48h25.906v-.076C36.238 47.486 38.453 45 38.453 42c0-3.308-2.691-6-6-6H13.016c-1.24 0-1.728-.945-1.848-1.234-.12-.29-.443-1.303.434-2.18l2.724-2.725a13.641 13.641 0 008.137 2.7c3.5 0 7-1.333 9.666-4l4.927-4.925a4.002 4.002 0 000-5.657l-.916-.916 4.487-4.486a2.5 2.5 0 000-3.536" fill="var(--icon-color,#333)"/>
    </g>
</svg>
