<svg viewBox="0 0 48 48" xmlns="http://www.w3.org/2000/svg" id="icon">
    <g fill="none" fill-rule="evenodd">
        <path d="M0 0h48v48H0z"/>
        <path d="M38 40c-1.654 0-3-1.346-3-3s1.346-3 3-3 3 1.346 3 3-1.346 3-3 3m-20 0c-1.654 0-3-1.346-3-3s1.346-3 3-3 3 1.346 3 3-1.346 3-3 3M37.132 4H33.94a4 4 0 00-4 4v9h1.5a2.5 2.5 0 002.5-2.5V8h3.192A6.868 6.868 0 0144 14.868v7.657l-4.177 7.724A6.993 6.993 0 0038 30c-3.164 0-5.842 2.112-6.705 5h-6.59c-.863-2.888-3.541-5-6.705-5a6.97 6.97 0 00-1.838.253L13.321 25H37.44a2.5 2.5 0 002.5-2.5V21H11.158l-.635-1.174v.002l-2.017-3.73A3.998 3.998 0 004.987 14H0v1.5A2.5 2.5 0 002.5 18h2.487l7.774 14.374A6.962 6.962 0 0011 37c0 3.859 3.141 7 7 7 3.164 0 5.842-2.112 6.705-5h6.59c.863 2.888 3.541 5 6.705 5 3.859 0 7-3.141 7-7 0-1.78-.674-3.402-1.771-4.638l4.29-7.934A4.015 4.015 0 0048 22.525v-7.657C48 8.866 43.135 4 37.132 4" fill="var(--icon-color,#333)"/>
    </g>
</svg>
