<svg viewBox="0 0 48 48" xmlns="http://www.w3.org/2000/svg" id="icon">
    <g fill="none" fill-rule="evenodd">
        <path d="M0 0h48v48H0z"/>
        <path d="M24 4a19.94 19.94 0 0110.645 3.065l2.014 1.458-.869 1.223a2.502 2.502 0 01-3.487.588A15.935 15.935 0 0024 8C15.177 8 8 15.177 8 24c0 8.822 7.177 16 16 16 8.822 0 16-7.178 16-16 0-3.113-.902-6.112-2.588-8.704a2.499 2.499 0 01.486-3.502l1.197-.905 1.517 1.971A19.907 19.907 0 0144 24c0 11.028-8.972 20-20 20-11.029 0-20-8.972-20-20C4 12.971 12.971 4 24 4zm0 27.865a2 2 0 11-.002 4.001A2 2 0 0124 31.865zm.024-18.975c4.151 0 7.528 3.377 7.528 7.528 0 3.41-2.331 6.379-5.552 7.258v1.189h-4v-1.218a3.977 3.977 0 012.788-3.802c1.59-.356 2.764-1.774 2.764-3.427a3.532 3.532 0 00-3.527-3.528 3.533 3.533 0 00-3.53 3.528A2.498 2.498 0 0118 22.865h-1.5l-.005-2.447c0-4.151 3.377-7.528 7.53-7.528z" fill="var(--icon-color,#333)"/>
    </g>
</svg>
