<svg viewBox="0 0 48 48" xmlns="http://www.w3.org/2000/svg" id="icon">
    <g fill="none" fill-rule="evenodd">
        <path d="M0 0h48v48H0z"/>
        <path d="M20.226 43.52v-.393l.033-.033v-.916c0-.859-.435-1.617-1.098-2.064l-.006-.003-.014-.008-.014-.012-.005-.003a2.505 2.505 0 00-.417-.226c-.021-.009-.043-.012-.064-.02a2.476 2.476 0 00-.905-.176h-1.46v-.543h-.002v-.929a2.485 2.485 0 00-1.1-2.065l-.005-.003a2.499 2.499 0 00-.417-.226c-.02-.009-.043-.012-.063-.02a2.475 2.475 0 00-.905-.175h-1.505V34.2a2.487 2.487 0 00-1.1-2.066c-.001 0-.003 0-.004-.003a2.438 2.438 0 00-.418-.225l-.026-.009a2.486 2.486 0 00-.943-.188H8.294v-1.494c0-.859-.435-1.617-1.098-2.064-.002-.002-.005-.002-.006-.004a2.58 2.58 0 00-.417-.226c-.021-.008-.043-.01-.064-.019a2.455 2.455 0 00-.905-.176H4.529L27.858 4.401v1.516a2.483 2.483 0 001.52 2.294l.032.01c.29.118.605.186.938.186h1.46v1.46a2.49 2.49 0 001.522 2.295c.02.008.045.012.068.02.28.11.582.175.9.175h1.494v1.494c0 .86.437 1.617 1.099 2.064l.006.003c.13.088.27.165.418.227.01.005.02.006.03.01.29.118.606.186.938.186h.778l-.023.023h.75v1.494c0 .86.437 1.617 1.1 2.064l.005.003c.132.088.27.165.418.227l.03.01c.29.118.607.185.939.185h1.122L20.226 43.52zm27.37-25.528a2.488 2.488 0 00-.67-.985.967.967 0 00-.1-.083c-.074-.058-.154-.108-.233-.159l.016-.017c-.037-.023-.082-.033-.121-.055a2.52 2.52 0 00-.394-.183c-.094-.034-.19-.056-.288-.079a2.562 2.562 0 00-.331-.049c-.07-.007-.136-.03-.208-.03h-1.493V14.87c0-.01-.003-.019-.003-.028a2.451 2.451 0 00-.074-.566c-.01-.042-.026-.082-.038-.123a2.416 2.416 0 00-.183-.449l-.041-.077a2.423 2.423 0 00-.397-.534 2.479 2.479 0 00-1.766-.736h-1.494v-1.494a2.49 2.49 0 00-2.49-2.49h-1.46v-1.46c0-.697-.29-1.325-.75-1.777a2.482 2.482 0 00-1.776-.747h-1.46V2.93c0-.692-.284-1.318-.741-1.77h.002c-.104-.104-.22-.182-.331-.272l-.028-.023c-1.565-1.238-3.832-1.152-5.277.294L23.354 3.27 3.277 23.343l-1.761 1.761-.352.353a3.977 3.977 0 00-.46 5.073c.116.184.252.352.41.501.019.018.03.041.05.06l.01-.01a2.475 2.475 0 001.64.628H4.31v1.495a2.49 2.49 0 002.49 2.49h1.495v1.493c0 .69.28 1.314.735 1.766a2.476 2.476 0 001.765.735h1.495v1.495c0 .543.179 1.041.474 1.45l-.007.008a2.483 2.483 0 002.026 1.043h1.458v1.448c0 .154.017.301.044.446.013.072.035.14.053.21.018.06.034.122.055.18a2.467 2.467 0 00.16.351c.055.1.115.195.183.286l.005.008c.056.074.108.151.172.22l-.007.006c.01.012.025.02.038.032.134.138.284.26.447.366a3.974 3.974 0 005.15-.398l.353-.352 1.76-1.76 20.078-20.073 2.112-2.114c1.234-1.23 1.474-3.064.754-4.548zm-29.825.826l-1.057 1.057 9.159 9.155c.97.973 2.548.973 3.52 0l1.058-1.056-9.158-9.156a2.49 2.49 0 00-3.522 0m-5.987 5.986l-1.057 1.057 3.875 3.873a2.49 2.49 0 003.522 0l1.056-1.056-3.875-3.874a2.49 2.49 0 00-3.521 0m11.975-11.972l-1.057 1.057 9.158 9.155a2.488 2.488 0 003.521 0l1.058-1.056-9.159-9.156a2.488 2.488 0 00-3.52 0" fill="var(--icon-color,#333)"/>
    </g>
</svg>
