<svg viewBox="0 0 48 48" xmlns="http://www.w3.org/2000/svg" id="icon">
    <g fill="none" fill-rule="evenodd">
        <path d="M0 0h48v48H0z"/>
        <path d="M2.714 29.296l10.128 2.714-.389 1.449a2.498 2.498 0 01-3.062 1.768l-1.02-.273c5.57 8.108 16.742 10.749 25.54 5.8 3.37-1.895 5.926-4.645 7.55-7.807a2.442 2.442 0 012.786-1.256l1.734.453c-1.779 4.827-5.245 9.093-10.15 11.852-10.704 6.022-24.358 2.694-30.943-7.36l-.377 1.409a2.5 2.5 0 01-3.062 1.767L0 39.424l2.713-10.127.001-.001zm9.454-25.293c10.704-6.022 24.358-2.694 30.943 7.36l.378-1.409a2.5 2.5 0 013.062-1.767l1.448.388-2.714 10.127v.001L35.158 15.99l.389-1.45a2.498 2.498 0 013.06-1.768l1.022.273c-5.57-8.108-16.743-10.749-25.54-5.8-3.372 1.895-5.927 4.645-7.55 7.807a2.442 2.442 0 01-2.787 1.256l-1.733-.453c1.777-4.827 5.243-9.092 10.149-11.852z" fill="var(--icon-color,#333)"/>
    </g>
</svg>
