<svg viewBox="0 0 48 48" xmlns="http://www.w3.org/2000/svg" id="icon">
    <g fill="none" fill-rule="evenodd">
        <path d="M0 48h48V0H0z"/>
        <path d="M45.5 44H44V29h-1.5a2.5 2.5 0 00-2.5 2.5V44h-9v-9a6 6 0 00-6-6h-2a6 6 0 00-6 6v9H8V31.5A2.5 2.5 0 005.5 29H4v15H2.5A2.5 2.5 0 000 46.5V48h17a4 4 0 004-4v-9a2 2 0 012-2h2a2 2 0 012 2v9a4 4 0 004 4h17v-1.5a2.5 2.5 0 00-2.5-2.5zM4.004 9H13v1a4 4 0 004 4h14a4 4 0 004-4V9h8.996v10.173c.011.409-.038.861-.207 1.348-.498 1.44-1.829 2.458-3.237 2.478a3.586 3.586 0 01-2.507-1.009l-.07-.069c-.643-.652-1.45-1.149-2.356-1.28-1.322-.192-2.645.241-3.448 1.127a3.502 3.502 0 01-2.67 1.231 3.498 3.498 0 01-2.672-1.234c-.668-.75-1.725-1.172-2.829-1.172s-2.161.422-2.828 1.172a3.501 3.501 0 01-2.673 1.234 3.504 3.504 0 01-2.67-1.231c-.802-.886-2.125-1.319-3.446-1.127-.907.13-1.714.627-2.358 1.279a3.585 3.585 0 01-2.576 1.079c-1.408-.02-2.74-1.038-3.238-2.478a3.752 3.752 0 01-.207-1.348V9zM17 10h14V4H17v6zM.431 21.831C1.484 24.879 4.283 26.956 7.395 27c2.042.003 3.931-.74 5.371-2.162.08-.079.159-.16.235-.242A7.479 7.479 0 0018.499 27 7.48 7.48 0 0024 24.593 7.48 7.48 0 0029.501 27a7.477 7.477 0 005.498-2.404c.076.082.155.163.235.242 1.441 1.422 3.329 2.165 5.372 2.162 3.111-.044 5.91-2.121 6.963-5.169.304-.875.426-1.713.426-2.7L48 9a4 4 0 00-4-4h-9V4a4 4 0 00-4-4H17a4 4 0 00-4 4v1H4a4 4 0 00-4 4l.004 10.132a7.774 7.774 0 00.427 2.699z" fill="var(--icon-color,#333)"/>
    </g>
</svg>
