<svg viewBox="0 0 48 48" xmlns="http://www.w3.org/2000/svg" id="icon">
    <g fill="none" fill-rule="evenodd">
        <path d="M0 0h48v48H0z"/>
        <path d="M21.22 40.503h5.54l.721-5.108 1.064-.433a11.936 11.936 0 002.674-1.548l.902-.68 4.772 1.916 2.776-4.802-4.016-3.17.134-1.11c.068-.57.101-1.08.101-1.568 0-.518-.038-1.019-.114-1.488l-.186-1.166 4.102-3.2-2.774-4.795-4.776 1.918-.904-.688a11.61 11.61 0 00-2.668-1.543l-1.064-.433-.724-5.108h-5.538l-.723 5.108-1.064.433a11.97 11.97 0 00-2.675 1.548l-.902.68-4.772-1.916-2.772 4.797 4.101 3.2-.187 1.165A9.612 9.612 0 0012.111 24c0 .51.04 1.025.114 1.488l.186 1.166-4.1 3.2 2.772 4.795 4.776-1.918.904.688a11.61 11.61 0 002.669 1.543l1.063.433.724 5.108zm6.484 3.997h-7.408c-1.417 0-2.606-.983-2.888-2.392l-.019-.113-.54-3.819a15.535 15.535 0 01-1.565-.906l-3.709 1.485c-1.353.452-2.831-.115-3.514-1.343l-3.686-6.376c-.7-1.319-.385-2.864.716-3.742l3.05-2.38c-.02-.303-.03-.61-.03-.914 0-.295.013-.603.039-.925l-3.02-2.357c-1.14-.852-1.468-2.427-.75-3.722l3.722-6.438c.687-1.24 2.239-1.8 3.586-1.281l3.624 1.455c.511-.337 1.033-.64 1.56-.905l.54-3.822c.22-1.458 1.43-2.505 2.884-2.505h7.408a2.911 2.911 0 012.903 2.49l.544 3.834c.533.267 1.052.568 1.565.906l3.708-1.485a2.948 2.948 0 013.515 1.343l3.686 6.376c.7 1.319.385 2.864-.716 3.742l-3.05 2.38a13.799 13.799 0 01.002 1.82l3.019 2.382c1.13.846 1.458 2.421.74 3.716l-3.721 6.438c-.688 1.24-2.238 1.804-3.588 1.281l-3.622-1.455c-.513.337-1.035.639-1.56.905l-.542 3.822c-.137 1.393-1.38 2.505-2.883 2.505zM28 24a4 4 0 11-8 0 4 4 0 018 0" fill="var(--icon-color,#333)"/>
    </g>
</svg>
