<svg viewBox="0 0 48 48" xmlns="http://www.w3.org/2000/svg" id="icon">
    <g fill="none" fill-rule="evenodd">
        <path d="M0 0h48v48H0z"/>
        <path d="M36 32.273c-1.52 0-2.88.603-3.92 1.546l-14.26-8.333c.1-.462.18-.924.18-1.406 0-.482-.08-.943-.18-1.405l14.1-8.253c1.08 1.004 2.5 1.626 4.08 1.626 3.32 0 6-2.69 6-6.024C42 6.691 39.32 4 36 4s-6 2.69-6 6.024c0 .482.08.944.18 1.406l-14.1 8.253c-1.08-1.004-2.5-1.627-4.08-1.627-3.32 0-6 2.691-6 6.024 0 3.334 2.68 6.024 6 6.024 1.58 0 3-.622 4.08-1.626l14.24 8.353c-.1.422-.16.864-.16 1.306C30.16 41.369 32.78 44 36 44c3.22 0 5.84-2.63 5.84-5.863 0-3.233-2.62-5.864-5.84-5.864z" fill="var(--icon-color,#333)"/>
    </g>
</svg>
