<svg viewBox="0 0 48 48" xmlns="http://www.w3.org/2000/svg" id="icon">
    <g fill="none" fill-rule="evenodd">
        <path d="M0 0h48v48H0z"/>
        <path d="M35.428 42.999l-.005-7.568h7.573l-7.568 7.568zM17.977 32.85l.114-.116a2.498 2.498 0 000-3.535l-1.06-1.061-1.804 1.805a10.583 10.583 0 01-1.678-5.731 10.59 10.59 0 013.123-7.54 10.593 10.593 0 017.54-3.122c2.064 0 4.034.59 5.732 1.677l-.037.037a2.498 2.498 0 000 3.535l1.06 1.06 1.883-1.882a10.577 10.577 0 012.024 6.235c0 2.848-1.108 5.525-3.123 7.54a10.592 10.592 0 01-7.54 3.123 10.58 10.58 0 01-6.234-2.025zM12.568 5v7.574L5 12.57l7.569-7.568zm35.178 28.463a3.282 3.282 0 00-3.044-2.033h-7.734a14.571 14.571 0 001.906-7.218 14.56 14.56 0 00-4.294-10.367A14.563 14.563 0 0024.212 9.55a14.55 14.55 0 00-7.643 2.163V3.296A3.284 3.284 0 0014.535.253a3.28 3.28 0 00-3.588.715l-9.98 9.979a3.284 3.284 0 00-.715 3.588 3.283 3.283 0 003.04 2.034l8.418.005a14.565 14.565 0 00-2.16 7.639c0 3.917 1.524 7.598 4.294 10.368a14.562 14.562 0 0010.368 4.295c2.572 0 5.035-.67 7.212-1.905l.006 7.736a3.284 3.284 0 002.034 3.04 3.282 3.282 0 003.588-.715l9.98-9.98a3.284 3.284 0 00.714-3.588zm-23.04-13L22.23 22.94a2.5 2.5 0 000 3.534l1.06 1.06 2.476-2.473a2.5 2.5 0 000-3.535l-1.061-1.061z" fill="var(--icon-color,#333)"/>
    </g>
</svg>
