<svg viewBox="0 0 48 48" xmlns="http://www.w3.org/2000/svg" id="icon">
    <g fill="none" fill-rule="evenodd">
        <path d="M0 48h48V0H0z"/>
        <path d="M26.539.026C23.8-.254 22 1.776 22 3.985v3.9h1.5a2.5 2.5 0 002.5-2.5V3.987c9.435.941 16.955 8.465 17.896 17.898H40v1.5a2.5 2.5 0 002.5 2.5h1.398C42.957 35.32 35.435 42.843 26 43.784v-1.399a2.5 2.5 0 00-2.5-2.5H22v3.899c-9.435-.941-16.957-8.464-17.898-17.9H5.5a2.5 2.5 0 002.5-2.5v-1.5H4.11c.794-7.936 6.237-14.52 13.566-16.969 1.229-.411 1.988-1.639 1.721-2.908L19.059.4C8.188 2.684 0 12.345 0 23.885c0 13.234 10.767 24 24 24s24-10.766 24-24C48 11.51 38.583 1.299 26.539.026zm1.109 30.336l1.061-1.061a2.5 2.5 0 000-3.535L26 23.057V12.385a2.5 2.5 0 00-2.5-2.5H22v13.172c0 1.06.422 2.078 1.172 2.828l4.476 4.477z" fill="var(--icon-color,#333)"/>
    </g>
</svg>
