<svg viewBox="0 0 48 48" xmlns="http://www.w3.org/2000/svg" id="icon">
    <g fill="none" fill-rule="evenodd">
        <path d="M0 48h48V0H0z"/>
        <path d="M45.5 44h-3.776l2.456-1.506a8 8 0 002.914-10.517L36.037 10.758A19.998 19.998 0 0018.301 0H2.5A2.5 2.5 0 000 2.5V4h18.301a16 16 0 0114.189 8.606L36.343 20h-5.337c-3.003 0-4.936 3.186-3.548 5.849l2.605 5A4 4 0 0033.61 33h1.89a2.5 2.5 0 002.5-2.5V29h-4.39l-2.604-5h7.421l5.12 9.826a4 4 0 01-1.457 5.258L34.072 44H25v-1a4 4 0 00-4-4h-9.5A2.5 2.5 0 009 41.5V43h12v1a4 4 0 004 4h23v-1.5a2.5 2.5 0 00-2.5-2.5zM0 41.5V43h4.5A2.5 2.5 0 007 40.5V39H2.5A2.5 2.5 0 000 41.5zM19.5 24H18v5a4 4 0 004 4h3v-1.5a2.5 2.5 0 00-2.5-2.5H22v-2.5a2.5 2.5 0 00-2.5-2.5zm-15 5H4v-2.5A2.5 2.5 0 001.5 24H0v5a4 4 0 004 4h3v-1.5A2.5 2.5 0 004.5 29zM9 29a4 4 0 004 4h3v-1.5a2.5 2.5 0 00-2.5-2.5H13v-2.5a2.5 2.5 0 00-2.5-2.5H9v5zM4.5 16H4v-2.5A2.5 2.5 0 001.5 11H0v5a4 4 0 004 4h3v-1.5A2.5 2.5 0 004.5 16zm6-5H9v5a4 4 0 004 4h3v-1.5a2.5 2.5 0 00-2.5-2.5H13v-2.5a2.5 2.5 0 00-2.5-2.5z" fill="var(--icon-color,#333)"/>
    </g>
</svg>
