<svg viewBox="0 0 48 48" xmlns="http://www.w3.org/2000/svg" id="icon">
    <g fill="none" fill-rule="evenodd">
        <path d="M0 0h48v48H0z"/>
        <path d="M37 28.065H19a4 4 0 01-4-4V18a4 4 0 014-4h18a4 4 0 014 4v6.065a4 4 0 01-4 4zm-18-4h18V18H19v6.065zM41 33.5V32h-3.5a2.5 2.5 0 00-2.5 2.5V36h3.5a2.5 2.5 0 002.5-2.5zM18.5 32a2.5 2.5 0 012.5 2.5V36h-3.5a2.5 2.5 0 01-2.5-2.5V32h3.5zM45.197 8.27C46.873 8.777 48 10.34 48 12.09V35a7 7 0 01-7 7h-2v1.194l1.866 4.805h-2.682a2.496 2.496 0 01-2.303-1.529S35 43.729 35 43.197V42a4 4 0 014-4h2a3 3 0 003-3l.002-22.913C39.603 10.762 34.406 10 28 10c-6.407 0-11.603.761-16.002 2.087L12 35c0 1.66 1.343 3 3 3h2a4 4 0 014 4v1.197c0 .532-.881 3.275-.881 3.275A2.497 2.497 0 0117.815 48h-2.681L17 43.194v-1.195h-2c-3.866 0-7-3.132-7-7V12.09c0-1.75 1.127-3.313 2.802-3.82C15.633 6.807 21.1 6 28 6s12.367.806 17.197 2.27zM12 1.5A2.5 2.5 0 019.5 4H4v41.5A2.5 2.5 0 011.5 48H0V4a4 4 0 014-4h8v1.5z" fill="var(--icon-color,#333)"/>
    </g>
</svg>
