<svg viewBox="0 0 48 48" xmlns="http://www.w3.org/2000/svg" id="icon">
    <g fill="none" fill-rule="evenodd">
        <path d="M0 0h48v48H0z"/>
        <path d="M15.392 23.147l.492-6.598h16.228l.474 6.596a14.262 14.262 0 01-17.194.002zm-.522 8.812a2 2 0 114.002.002 2 2 0 01-4.002-.002zm16.234 2a2 2 0 11.002-4.001 2 2 0 01-.002 4.001zm1.24 9.76H38l-5.522-5.522c3.07-1.28 5.16-4.402 4.906-7.942l-1.55-21.574a3.999 3.999 0 00-3.988-3.714H16.154a4 4 0 00-3.99 3.714l-1.548 21.574c-.254 3.54 1.836 6.662 4.904 7.942L10 43.72h5.656l4.892-4.89h6.904l4.892 4.89z" fill="var(--icon-color,#333)"/>
    </g>
</svg>
