<svg viewBox="0 0 48 48" xmlns="http://www.w3.org/2000/svg" id="icon">
    <g fill="none" fill-rule="evenodd">
        <path d="M0 0h48v48H0z"/>
        <path d="M41 41.003a3 3 0 01-3 3H10a3 3 0 01-3-3v-26.91c4.396-1.328 10.593-2.09 17-2.09 6.406 0 12.603.762 17.002 2.087L41 41.003zm1.197-30.73c-4.638-1.405-10.792-2.197-17.384-2.257L28.829 4H31.5A2.5 2.5 0 0034 1.5V0H17v1.5A2.5 2.5 0 0019.5 4h3.671l-4.147 4.148c-4.994.292-9.573 1.02-13.221 2.125C4.128 10.779 3 12.343 3 14.093v26.91a7 7 0 007 7h28a7 7 0 007-7v-26.91c0-1.75-1.127-3.313-2.803-3.82zM15 28.034h18v-6.06H15v6.06zM14.5 36a2.5 2.5 0 012.5 2.5V40h-3.5a2.5 2.5 0 01-2.5-2.5V36zM37 36v1.5a2.5 2.5 0 01-2.5 2.5H31v-1.5a2.5 2.5 0 012.5-2.5H37zm-4-18.027c2.21 0 4 1.79 4 4v6.06c0 2.21-1.79 4-4 4H15c-2.21 0-4-1.79-4-4v-6.06c0-2.21 1.79-4 4-4z" fill="var(--icon-color,#333)"/>
    </g>
</svg>
