<svg viewBox="0 0 48 48" xmlns="http://www.w3.org/2000/svg" id="icon">
    <g fill="none" fill-rule="evenodd">
        <path d="M0 48h48V0H0z"/>
        <path d="M9 7a3.5 3.5 0 100-7 3.5 3.5 0 000 7m29-7H24v1.5A2.5 2.5 0 0026.5 4H38a6 6 0 016 6v34h-8v-6a6 6 0 00-6-6h-3.5a2.5 2.5 0 00-2.5 2.5V36h6a2 2 0 012 2v6a4 4 0 004 4h8a4 4 0 004-4V10c0-5.523-4.478-10-10-10m-9.995 22V12H34v10c0 1.103-.897 2-2 2h-4.338a5.972 5.972 0 00.343-2m-6 2H21.5a2.5 2.5 0 00-2.5 2.5V28h13a6 6 0 006-6V12a4 4 0 00-4-4h-5.995a4 4 0 00-4 4v3.868l-6.029 1.54a1.999 1.999 0 01-2.372-1.539l-.451-2.12A5.997 5.997 0 009.287 9H6a6 6 0 00-6 6v12a6 6 0 006 6h1v12.5A2.5 2.5 0 009.5 48H11V33a4 4 0 00-4-4H6a2 2 0 01-2-2V15a2 2 0 012-2h3.285c.944 0 1.76.661 1.957 1.584l.45 2.118c.691 3.236 3.883 5.313 7.12 4.617l5.193-1.358V22a2 2 0 01-2 2" fill="var(--icon-color,#333)"/>
    </g>
</svg>
