<svg viewBox="0 0 48 48" xmlns="http://www.w3.org/2000/svg" id="icon">
    <g fill="none" fill-rule="evenodd">
        <path d="M0 0h48v48H0z"/>
        <path d="M44.567 34.61a13.996 13.996 0 00-13.153-9.604l-.002-.005h-1.413v-1.014c2.425-1.826 4-4.724 4-7.986V13c0-5.522-4.477-10-10-10v.001V3C18.476 3 14 7.477 14 12.999v3.002c0 3.262 1.575 6.16 4.001 7.986v1.014h-1.413l-.002.005A13.996 13.996 0 003.432 34.61L0 45.001h2.406a2.5 2.5 0 002.374-1.716l2.451-7.421a10.002 10.002 0 019.496-6.863h1.274a4 4 0 004-4v-1.014c0-1.355-.637-2.471-1.608-3.201a5.983 5.983 0 01-2.392-4.785v-3.002A5.998 5.998 0 1129.999 13v3.001a5.983 5.983 0 01-2.393 4.785c-.971.73-1.607 1.846-1.607 3.201v1.014a4 4 0 004 4h1.273a10 10 0 019.496 6.863l2.451 7.421a2.5 2.5 0 002.374 1.716H48L44.567 34.61zm-9.722 1.546h-2.406l2.355 7.129a2.498 2.498 0 002.374 1.716h2.406l-2.355-7.129a2.5 2.5 0 00-2.374-1.716zM10.78 37.872l-2.355 7.129h2.407a2.5 2.5 0 002.374-1.716l2.354-7.129h-2.406a2.5 2.5 0 00-2.374 1.716z" fill="var(--icon-color,#333)"/>
    </g>
</svg>
