<svg viewBox="0 0 48 48" xmlns="http://www.w3.org/2000/svg" id="icon">
    <g fill="none" fill-rule="evenodd">
        <path d="M0 0h48v48H0z"/>
        <path d="M45.455 9.712c-.128.594-.334 1.047-.618 1.358-.284.313-.704.468-1.26.468-.573 0-1.018-.192-1.334-.579-.315-.386-.474-1.101-.474-2.142 0-.84.132-1.458.398-1.85.35-.529.854-.794 1.513-.794.29 0 .552.06.788.18.235.12.433.291.596.512.098.133.193.342.282.628l2.564-.57c-.329-.991-.832-1.727-1.51-2.205C45.724 4.239 44.793 4 43.609 4c-1.512 0-2.682.418-3.509 1.253-.828.835-1.241 2.029-1.241 3.584 0 1.166.235 2.122.705 2.869.47.748 1.029 1.27 1.676 1.567.648.296 1.483.445 2.503.445.842 0 1.536-.122 2.08-.365a3.518 3.518 0 001.369-1.083c.367-.479.637-1.076.808-1.789l-2.545-.769zm-10.718-.298L33.28 4.16h-2.748l-1.454 5.261-.992-5.261h-2.759l2.091 9.398h2.848l1.641-5.917 1.649 5.917h2.847l2.072-9.398h-2.744l-.994 5.254zM16 11a3.5 3.5 0 100-7 3.5 3.5 0 100 7zm5.259 18h-6.286a2 2 0 01-1.956-1.583l-1.703-8.001a1.989 1.989 0 01.402-1.674A1.993 1.993 0 0113.27 17h1.9c.944 0 1.761.66 1.958 1.584l.143.67A6.001 6.001 0 0023.139 24H27v-1.5a2.5 2.5 0 00-2.5-2.5h-1.361a1.998 1.998 0 01-1.955-1.581l-.145-.674A6 6 0 0015.172 13H13.27c-2.169 0-4.167 1.152-5.258 3.104-.733 1.311-.881 2.871-.569 4.339l.091.426A12 12 0 000 32c0 6.617 5.383 12 12 12 3.783 0 7.146-1.772 9.348-4.517l-1.403-1.122c-.916-.733-2.196-.701-3.13.01A7.917 7.917 0 0112 40c-4.411 0-8-3.589-8-8 0-3.057 1.748-5.774 4.389-7.115l.716 3.365A6 6 0 0014.974 33h6.284c.937 0 1.749.651 1.953 1.566l1.662 7.477A2.501 2.501 0 0027.314 44h2.108l-2.307-10.302A5.961 5.961 0 0021.259 29z" fill="var(--icon-color,#333)"/>
    </g>
</svg>
