<svg viewBox="0 0 20 20" xmlns="http://www.w3.org/2000/svg" id="icon">
    <g fill="none" fill-rule="evenodd">
        <path d="M0 0h20v20H0z"/>
        <path d="M10.072 5.417a2.5 2.5 0 012.444 1.977l.06.28a.833.833 0 00.815.66h.567c.576 0 1.042.466 1.042 1.041V10h-1.609a2.5 2.5 0 01-2.445-1.977l-.06-.28a.834.834 0 00-.815-.66h-.792a.83.83 0 00-.815 1.007l.71 3.334c.082.384.421.66.815.66h2.619c1.18 0 2.184.804 2.44 1.957l.961 4.292h-.878c-.488 0-.911-.338-1.017-.815l-.693-3.116a.834.834 0 00-.813-.652H9.989a2.5 2.5 0 01-2.445-1.98l-.299-1.401a3.329 3.329 0 00-1.828 2.964 3.337 3.337 0 003.333 3.334c.754 0 1.448-.254 2.006-.68.39-.295.923-.309 1.304-.003l.585.467a4.984 4.984 0 01-3.895 1.882c-2.757 0-5-2.243-5-5a5 5 0 013.14-4.638l-.039-.177c-.13-.612-.068-1.262.237-1.808A2.497 2.497 0 019.28 5.417zm.345-3.75a1.458 1.458 0 110 2.916 1.458 1.458 0 010-2.916z" fill="var(--icon-color,#333)"/>
        <path d="M.5.5l19 19" stroke="var(--icon-color,#333)" stroke-linecap="round"/>
    </g>
</svg>
