<svg viewBox="0 0 48 48" xmlns="http://www.w3.org/2000/svg" id="icon">
    <g fill="none" fill-rule="evenodd">
        <path d="M0 0h48v48H0z"/>
        <path d="M23.67 21.638c-5.32 0-9.65-4.321-9.668-9.638h19.336c-.019 5.318-4.347 9.636-9.668 9.638M33.34 0h-5.67l.001 1.5c0 1.382 1.118 2.5 2.5 2.5h3.17v4H14V4h7.17a2.499 2.499 0 002.498-2.5L23.67 0H14a4 4 0 00-4 4v7.967c0 6.858 5.08 12.534 11.67 13.508V44h-5.5a2.5 2.5 0 00-2.5 2.5V48h19.5v-1.5a2.5 2.5 0 00-2.5-2.5h-5V25.475a13.64 13.64 0 007.662-3.845 13.625 13.625 0 004.008-9.663V4a4.002 4.002 0 00-4-4" fill="var(--icon-color,#333)"/>
    </g>
</svg>
