<svg viewBox="0 0 48 48" xmlns="http://www.w3.org/2000/svg" id="icon">
    <g fill="none" fill-rule="evenodd">
        <path d="M0 48h48V0H0z"/>
        <path d="M33.968 29.556L30.601 13.75A6.028 6.028 0 0024.733 9h-1.467a6.027 6.027 0 00-5.868 4.75l-3.032 14.229A2.5 2.5 0 0016.812 31h1l3.498-16.417A2 2 0 0123.266 13h1.467c.943 0 1.758.66 1.956 1.583l3.408 16.001a1.992 1.992 0 01-.401 1.674 1.992 1.992 0 01-1.555.742h-2.142a4 4 0 00-4 4v11h1.5a2.5 2.5 0 002.5-2.5V37h2.142c2.169 0 4.168-1.152 5.259-3.104.732-1.311.881-2.871.568-4.34M23.999 7a3.5 3.5 0 100-7 3.5 3.5 0 000 7" fill="var(--icon-color,#333)"/>
    </g>
</svg>
