<svg viewBox="0 0 48 48" xmlns="http://www.w3.org/2000/svg" id="icon">
    <g fill="none" fill-rule="evenodd">
        <path d="M0 0h48v48H0z"/>
        <path d="M20.172 13a6 6 0 015.812 4.51l.055.235.145.674a1.998 1.998 0 001.79 1.574l.165.007H29.5a2.5 2.5 0 012.495 2.336L32 22.5V24h-3.861a6.001 6.001 0 01-5.813-4.51l-.055-.236-.143-.67a2.002 2.002 0 00-1.793-1.577L20.17 17h-1.9c-.606 0-1.172.271-1.554.742a1.99 1.99 0 00-.432 1.496l.03.178 1.703 8.001a2 2 0 001.79 1.576l.166.007h6.286c2.75 0 5.1 1.82 5.797 4.456l.059.242L34.422 44h-2.108a2.501 2.501 0 01-2.397-1.788l-.044-.169-1.662-7.477a2.002 2.002 0 00-1.789-1.56L26.258 33h-6.284a6 6 0 01-5.814-4.515l-.055-.235-.716-3.365C10.748 26.226 9 28.943 9 32c0 4.411 3.589 8 8 8 1.81 0 3.476-.609 4.815-1.629.882-.672 2.073-.737 2.974-.125l.156.115 1.403 1.122C24.146 42.228 20.783 44 17 44c-6.617 0-12-5.383-12-12a12 12 0 017.249-11.012l.285-.119-.091-.426c-.312-1.468-.164-3.028.569-4.339 1.049-1.877 2.937-3.014 5.009-3.099L18.27 13h1.902zm20.888 0l.94.917-4 3.903-4-3.903.94-.917L38 15.98 41.06 13zM21 4a3.5 3.5 0 110 7 3.5 3.5 0 110-7zm17 1l4 3.903-.94.917L38 6.84l-3.06 2.98-.94-.917L38 5z" fill="var(--icon-color,#333)"/>
    </g>
</svg>
