<svg viewBox="0 0 48 48" xmlns="http://www.w3.org/2000/svg" id="icon">
    <g fill="none" fill-rule="evenodd">
        <path d="M0 0h48v48H0z"/>
        <path d="M24 4a19.94 19.94 0 0110.645 3.065l-.01.018 2.024 1.44-.87 1.222a2.5 2.5 0 01-3.487.588A15.895 15.895 0 0024 8C15.177 8 8 15.177 8 24c0 8.822 7.177 16 16 16 8.822 0 16-7.178 16-16 0-3.113-.898-6.116-2.584-8.709a2.49 2.49 0 01.482-3.498l1.196-.905 1.5 1.985.018-.013A19.907 19.907 0 0144 24c0 11.028-8.972 20-20 20-11.029 0-20-8.972-20-20C4 12.971 12.971 4 24 4zm2 11l-.001 3H26v4h5a2 2 0 010 4h-5v4h-.001v.5A2.5 2.5 0 0123.5 33H22v-7h-5a2 2 0 010-4h5v-4.5a2.498 2.498 0 012.5-2.5H26z" fill="var(--icon-color,#333)"/>
    </g>
</svg>
