<svg viewBox="0 0 48 48" xmlns="http://www.w3.org/2000/svg" id="icon">
    <g fill="none" fill-rule="evenodd">
        <path d="M0 0h48v48H0z"/>
        <path d="M21 24c0-1.654 1.346-3 3-3s3 1.346 3 3-1.346 3-3 3-3-1.346-3-3zm8.074-12.273a3.943 3.943 0 012.502 4.249 3.97 3.97 0 01-2.113 2.97l-.418.215a6.981 6.981 0 00-3.934-2.064l-.948-7.255 4.911 1.885zm7.106 19.494l-4.088 3.31a3.943 3.943 0 01-4.932.042 3.961 3.961 0 01-1.515-3.314l.022-.468a7.01 7.01 0 003.757-2.375l6.756 2.805zm-24.522-.284l-.824-5.195a3.942 3.942 0 012.43-4.291 3.968 3.968 0 013.629.344l.389.251A7.003 7.003 0 0017 24c0 .877.169 1.714.465 2.489l-5.807 4.448zm13.04 6.788a7.924 7.924 0 009.911-.085l4.09-3.313c2.357-1.908 1.817-5.641-.984-6.804l-6.753-2.8A7.2 7.2 0 0031 24c0-.438-.046-.866-.124-1.283l.413-.212a7.971 7.971 0 004.248-5.973 7.923 7.923 0 00-5.029-8.54l-4.915-1.887c-2.83-1.086-5.794 1.249-5.4 4.255l.952 7.255a7.006 7.006 0 00-1.691 1.073l-.393-.254a7.97 7.97 0 00-7.295-.692 7.925 7.925 0 00-4.882 8.626l.823 5.199c.475 2.995 3.979 4.393 6.385 2.549l5.808-4.454a6.991 6.991 0 001.772.932l-.023.467a7.969 7.969 0 003.049 6.664zM42.314 8.514l-1.322 1.321c-.852.853-.952 2.178-.288 3.184A19.876 19.876 0 0144 24c0 11.028-8.973 20-20 20-11.029 0-20-8.972-20-20S12.971 4 24 4c4.053 0 7.826 1.214 10.98 3.295 1.006.664 2.331.565 3.184-.288l1.321-1.321A23.884 23.884 0 0024 0C10.766 0 0 10.767 0 24s10.766 24 24 24c13.232 0 24-10.767 24-24 0-5.898-2.144-11.303-5.686-15.486z" fill="var(--icon-color,#333)"/>
    </g>
</svg>
