<svg viewBox="0 0 48 48" xmlns="http://www.w3.org/2000/svg" id="icon">
    <g fill="none" fill-rule="evenodd">
        <path d="M0 48h48V0H0z"/>
        <path d="M37.5 43.997h-27a2.5 2.5 0 00-2.5 2.5v1.5h32v-1.5a2.5 2.5 0 00-2.5-2.5m-23-16H11v1.5a2.5 2.5 0 002.5 2.5H17v-1.5a2.5 2.5 0 00-2.5-2.5m16.5 2.5v1.5h3.5a2.5 2.5 0 002.5-2.5v-1.5h-3.5a2.5 2.5 0 00-2.5 2.5M15 20.03h18v-6.06H15v6.06zm-4-6.06v6.06c0 2.21 1.79 4 4 4h18c2.21 0 4-1.79 4-4v-6.06c0-2.21-1.79-4-4-4H15c-2.21 0-4 1.79-4 4zM41 33a3 3 0 01-3 3H10a3 3 0 01-3-3V6.09C11.396 4.763 17.593 4 24 4c6.406 0 12.603.762 17.002 2.087L41 33zm1.197-30.73C37.367.809 30.9 0 24 0 17.1 0 10.636.808 5.803 2.27 4.128 2.776 3 4.34 3 6.09V33a7 7 0 007 7h28a7 7 0 007-7V6.09c0-1.75-1.127-3.313-2.803-3.82z" fill="var(--icon-color,#333)"/>
    </g>
</svg>
