<svg viewBox="0 0 48 48" xmlns="http://www.w3.org/2000/svg" id="icon">
    <g fill="none" fill-rule="evenodd">
        <path d="M0 48h48V0H0z"/>
        <path d="M10.5 36a3.5 3.5 0 10.001-6.998 3.5 3.5 0 00-.001 6.999zm35-4H34.821l-4.243-4.242A6 6 0 0026.336 26H22a6 6 0 00-6 6v4h1.5a2.5 2.5 0 002.5-2.5V32a2 2 0 012-2h4.336c.529 0 1.039.21 1.414.585l4.242 4.244A4 4 0 0034.821 36H48v-1.5a2.5 2.5 0 00-2.5-2.5zM4 31.5A2.5 2.5 0 001.5 29H0v9a4 4 0 004 4v6h1.5A2.5 2.5 0 008 45.5V42h32v3.5a2.5 2.5 0 002.5 2.5H44v-6a4 4 0 004-4H4v-6.5zM21.823 4.81a11.11 11.11 0 00-.028 1.642c.276 4.798 3.584 8.718 7.952 10.002a7.072 7.072 0 01-4.205 1.694c-3.9.225-7.257-2.767-7.481-6.667a7.095 7.095 0 013.762-6.671zm3.948 17.33a11.073 11.073 0 009.426-6.415l.009-.018a2.003 2.003 0 00-1.963-2.818v-.001c-3.889.21-7.231-2.775-7.454-6.667a6.992 6.992 0 01.643-3.378l.01-.024A2 2 0 0024.563 0l-.064.004c-6.103.35-10.782 5.6-10.432 11.704.352 6.104 5.602 10.783 11.704 10.43z" fill="var(--icon-color,#333)"/>
    </g>
</svg>
