<svg viewBox="0 0 20 20" xmlns="http://www.w3.org/2000/svg" id="icon">
    <g fill="none" fill-rule="evenodd">
        <path d="M0 20h20V0H0z"/>
        <path d="M5.796 12.917L7.37 10.71l.668 2.207H5.796zm2.329-5.834c.575 0 1.042-.466 1.042-1.041v-.625H3.75v.625c0 .575.466 1.041 1.042 1.041h.863a.832.832 0 01.798.592l.308 1.02-2.322 3.253a1.642 1.642 0 00-.15 1.676 1.651 1.651 0 001.372.95 2.065 2.065 0 01-1.129 1.106 2.082 2.082 0 01-1.182.114 2.07 2.07 0 01-1.075-.57 2.089 2.089 0 01.083-3.024 2.09 2.09 0 01.705-.417c.155-.054.29-.143.398-.256.18-.19.286-.447.286-.72v-.806a3.72 3.72 0 00-1.664.39 3.754 3.754 0 00-.08 6.68A3.76 3.76 0 006.4 16.4a3.728 3.728 0 001-1.816h1.594a1.665 1.665 0 001.36-.703l3.549-5.009 1.251 4.139a1.058 1.058 0 00.377.535c.175.13.391.205.62.205h.968l-.622-2.058c.129.015.254.043.375.08a2.1 2.1 0 01.469.223c.215.133.402.302.555.5.27.35.436.78.436 1.255a2.086 2.086 0 01-2.083 2.083 2.086 2.086 0 01-1.968-1.399 1.03 1.03 0 00-.976-.684H12.5a3.756 3.756 0 003.75 3.75A3.754 3.754 0 0020 13.75 3.754 3.754 0 0016.25 10c-.088 0-.174.006-.26.012l-1.734-5.736A2.5 2.5 0 0011.863 2.5H10v.625c0 .575.466 1.042 1.042 1.042h.82a.833.833 0 01.798.592l.632 2.09-3.756 5.264-1.488-4.92a.703.703 0 00-.043-.11h.12z" fill="var(--icon-color,#333)"/>
        <path d="M.5.5l19 19" stroke="var(--icon-color,#333)" stroke-linecap="round"/>
    </g>
</svg>
