<svg viewBox="0 0 48 48" xmlns="http://www.w3.org/2000/svg" id="icon">
    <g fill="none" fill-rule="evenodd">
        <path d="M0 48h48V0H0z"/>
        <path d="M42 31.5a2.5 2.5 0 00-2.5-2.5h-20a2.5 2.5 0 00-2.5 2.5V33h25v-1.5zm-27 0a2.5 2.5 0 00-2.5-2.5h-4A2.5 2.5 0 006 31.5V33h9v-1.5zm27-23A2.5 2.5 0 0039.5 6h-20A2.5 2.5 0 0017 8.5V10h25V8.5zm-27 0A2.5 2.5 0 0012.5 6h-4A2.5 2.5 0 006 8.5V10h9V8.5zM4 35h40V16H4v19zM46.5 3A2.5 2.5 0 0044 5.5V12H4V5.5A2.5 2.5 0 001.5 3H0v42h1.5A2.5 2.5 0 004 42.5V39h40v3.5a2.5 2.5 0 002.5 2.5H48V3h-1.5z" fill="var(--icon-color,#333)"/>
    </g>
</svg>
