<svg viewBox="0 0 48 48" xmlns="http://www.w3.org/2000/svg" id="icon">
    <g fill="none" fill-rule="evenodd">
        <path d="M0 48h48V0H0z"/>
        <path d="M36 33.5V35h3.5a2.5 2.5 0 002.5-2.5V31h-3.5a2.5 2.5 0 00-2.5 2.5zM21.5 31H18v1.5a2.5 2.5 0 002.5 2.5H24v-1.5a2.5 2.5 0 00-2.5-2.5zM42 38H18a2 2 0 01-2-2V12.083C18.345 10.985 23.489 10 30 10s11.655.985 14 2.083V36a2 2 0 01-2 2zm-21 6h18v-2H21v2zm23-2a4 4 0 004-4V12.083c0-1.428-.749-2.863-2.312-3.621C42.391 6.923 36.632 6 30 6c-6.632 0-12.391.923-15.688 2.462C12.749 9.22 12 10.655 12 12.083V38a4 4 0 004 4h1v2H2.5A2.5 2.5 0 000 46.5V48h48v-1.5a2.5 2.5 0 00-2.5-2.5H43v-2h1zm-8-27.5a2.5 2.5 0 00-2.5-2.5h-7a2.5 2.5 0 00-2.5 2.5V16h12v-1.5zm-18 12a2.5 2.5 0 002.5 2.5h19a2.5 2.5 0 002.5-2.5V25H18v1.5zM2.5 42H4V4h5.5A2.5 2.5 0 0012 1.5V0H4a4 4 0 00-4 4v35.5A2.5 2.5 0 002.5 42z" fill="var(--icon-color,#333)"/>
    </g>
</svg>
