<svg viewBox="0 0 48 48" xmlns="http://www.w3.org/2000/svg" id="icon">
    <g fill="none" fill-rule="evenodd">
        <path d="M0 0h48v48H0z"/>
        <path d="M45.5 29h-11a2.5 2.5 0 00-2.5 2.5V33h16v-1.5a2.5 2.5 0 00-2.5-2.5zm-34.001 0H8.5A2.5 2.5 0 006 31.5V33h7.999v-1.5a2.5 2.5 0 00-2.5-2.5zm2.5-20.5a2.5 2.5 0 00-2.5-2.5H8.5A2.5 2.5 0 006 8.5V10h7.999V8.5zM24.5 29a2.5 2.5 0 00-2.5 2.5V33h8v-1.5a2.5 2.5 0 00-2.5-2.5h-3zm21-23h-11A2.5 2.5 0 0032 8.5V10h16V8.5A2.5 2.5 0 0045.5 6zM30 8.5A2.5 2.5 0 0027.5 6h-3A2.5 2.5 0 0022 8.5V10h8V8.5zm-10-3A2.5 2.5 0 0017.5 3H16v42h1.5a2.5 2.5 0 002.5-2.5V39h25.5a2.5 2.5 0 002.5-2.5V35H20V16h25.5a2.5 2.5 0 002.5-2.5V12H20V5.5zm-16 0A2.5 2.5 0 001.5 3H0v42h1.5A2.5 2.5 0 004 42.5V39h7.5a2.5 2.5 0 002.5-2.5V35H4V16h7.5a2.5 2.5 0 002.5-2.5V12H4V5.5z" fill="var(--icon-color,#333)"/>
    </g>
</svg>
