<svg viewBox="0 0 48 48" xmlns="http://www.w3.org/2000/svg" id="icon">
    <g fill="none" fill-rule="evenodd">
        <path d="M0 0h48v48H0z"/>
        <path d="M42.818 29.236l-16.81-9.243.004-2.288C28.95 16.825 31 14.067 31 11c0-1.842-.737-3.592-2.073-4.929C27.59 4.735 25.84 4 24 4c-3.86 0-7 3.14-7 7h2.108c.945 0 1.792-.542 2.23-1.381A3.004 3.004 0 0124 8c.773 0 1.518.319 2.098.9.581.581.902 1.326.902 2.1a3.018 3.018 0 01-2.136 2.873A3.979 3.979 0 0022 17.701v2.288c0 1.458.795 2.802 2.072 3.505l16.818 9.247A6.003 6.003 0 0144 38H4a5.999 5.999 0 013.11-5.258l12.437-6.839a2.502 2.502 0 00.986-3.396l-.723-1.314-14.627 8.042A10.002 10.002 0 000 37.938C-.014 40.171 1.775 42 4.01 42h39.98c2.233 0 4.022-1.829 4.01-4.062a10.006 10.006 0 00-5.183-8.702" fill="var(--icon-color,#333)"/>
    </g>
</svg>
