<svg viewBox="0 0 48 48" xmlns="http://www.w3.org/2000/svg" id="icon">
    <g fill="none" fill-rule="evenodd">
        <path d="M0 0h48v48H0z"/>
        <path d="M35.2 19.603A7.958 7.958 0 0140 18c4.411 0 8 3.589 8 8s-3.589 8-8 8h-2.5v-1.5A2.5 2.5 0 0140 30c2.206 0 4-1.794 4-4s-1.794-4-4-4-4 1.794-4 4v.091c0 4.781-1.485 9.352-4.296 13.221l-2.632 3.623A5.231 5.231 0 0028.473 44H38v1.5a2.5 2.5 0 01-2.5 2.5h-31A2.5 2.5 0 012 45.5V44h9.527a5.231 5.231 0 00-.599-1.065l-2.632-3.623A22.352 22.352 0 014 26.091V22c0-2.206 1.794-4 4-4h24c1.308 0 2.47.63 3.2 1.603zM15.708 44h8.586a9.151 9.151 0 011.543-3.417l2.632-3.623A18.381 18.381 0 0032 26.091V22H8v4.091c0 3.93 1.222 7.689 3.532 10.869l2.632 3.623A9.167 9.167 0 0115.707 44zm9.849-30h-1.5v-2.789c0-1.184.35-2.342 1.008-3.328l2.656-3.985c.219-.328.336-.714.336-1.109V2.5a2.5 2.5 0 012.5-2.5h1.5v2.789a6.002 6.002 0 01-1.008 3.328l-2.656 3.985a1.99 1.99 0 00-.336 1.109v.289a2.5 2.5 0 01-2.5 2.5zm-10 0h-1.5v-2.789c0-1.184.35-2.342 1.008-3.328l2.656-3.985c.219-.328.336-.714.336-1.109V2.5a2.5 2.5 0 012.5-2.5h1.5v2.789a6.002 6.002 0 01-1.008 3.328l-2.656 3.985a1.99 1.99 0 00-.336 1.109v.289a2.5 2.5 0 01-2.5 2.5z" fill="var(--icon-color,#333)"/>
    </g>
</svg>
