<svg viewBox="0 0 48 48" xmlns="http://www.w3.org/2000/svg" id="icon">
    <g fill="none" fill-rule="evenodd">
        <path d="M0 0h48v48H0z"/>
        <path d="M22 39.5V41h1.5a2.5 2.5 0 002.5-2.5V37h-1.5a2.5 2.5 0 00-2.5 2.5zm9.325-6.192L27.017 29h5.463l-1.155 4.308zm-15.061.789L14.896 29h6.463l-5.095 5.097zM17.501 8l-2-4H30v4H17.501zM38 25h-8.001C32.425 23.173 34 20.276 34 17.014V4a4 4 0 00-4-4H15.5c-2.974 0-4.907 3.129-3.577 5.789L13.028 8H11.5A2.5 2.5 0 009 10.5V12h21v5.014a5.977 5.977 0 01-2.395 4.785C26.637 22.529 26 23.645 26 25h-3.999c0-1.355-.637-2.471-1.606-3.202a5.979 5.979 0 01-2.394-4.785V16.5a2.5 2.5 0 00-2.5-2.5H14v3.013c0 3.263 1.575 6.16 4.001 7.987H10a8 8 0 00-8 8v15h1.5A2.5 2.5 0 006 45.5V33a4 4 0 014-4h.754l1.645 6.133c.798 2.973 4.515 3.969 6.693 1.792l5.096-5.097 5.94 5.94L27.384 48h2.223c1.131 0 2.122-.76 2.415-1.852L36.622 29H38a4 4 0 014 4v12.5a2.5 2.5 0 002.5 2.5H46V33a8 8 0 00-8-8z" fill="var(--icon-color,#333)"/>
    </g>
</svg>
