<svg viewBox="0 0 48 48" xmlns="http://www.w3.org/2000/svg" id="icon">
    <g fill="none" fill-rule="evenodd">
        <path d="M0 0h48v48H0z"/>
        <path d="M36.023 41.125L35.546 39l-.193-.869A4 4 0 0031.449 35h-8.075a7.97 7.97 0 01-3.753-.941L20.497 30h7.051v-1.5a2.5 2.5 0 00-2.5-2.5h-4.552a4 4 0 00-3.91 3.157l-.325 1.505a8.036 8.036 0 01-.709-1.979l-4.037-18.71A2.499 2.499 0 009.072 8H7l4.642 21.525A12 12 0 0023.374 39h8.071l.668 3H18.048a2.5 2.5 0 00-2.5 2.5V46H32.12a4 4 0 003.903-4.875" fill="var(--icon-color,#333)"/>
    </g>
</svg>
