<svg viewBox="0 0 48 48" xmlns="http://www.w3.org/2000/svg" id="icon">
    <g fill="none" fill-rule="evenodd">
        <path d="M0 0h48v48H0z"/>
        <path d="M6 19h6.514v1.431h-4.75v2.22h4.491v1.432h-4.49v2.43h4.75v1.431H6V19zm9.278 0v4.972l2.418-2.665h1.912l-2.381 2.542 2.517 4.095H17.83l-1.74-2.874-.813.876v1.998h-1.703V19h1.703zm8.882 4.306c-.123-.555-.641-.95-1.418-.95-.63 0-1.074.234-1.074.641 0 .358.26.63.889.765l.888.198c1.32.296 2.443.629 2.443 1.998 0 1.333-1.37 2.147-2.875 2.147-1.628 0-2.862-.84-3.023-2.357h1.641c.099.642.555 1.123 1.431 1.123.728 0 1.197-.271 1.197-.752 0-.494-.518-.691-1.086-.815l-.987-.21c-1.246-.258-2.072-.777-2.072-1.986 0-1.196 1.283-1.974 2.714-1.974 1.382 0 2.702.642 2.924 2.172H24.16zm3.023-3.8h1.703v1.801h1.381v1.172h-1.381v3.43c0 .678.234.814.838.814h.519v1.221h-1.246c-1.518 0-1.814-.468-1.814-1.788v-3.677h-.938v-1.172h.938v-1.801zm7.97 3.442a6.713 6.713 0 00-.703-.037c-.84 0-1.394.308-1.394 1.554v3.48h-1.703v-6.638h1.678v1.16c.382-.814.987-1.148 1.752-1.148.11 0 .259.013.37.025v1.604zm2.998 5.157c-1.27 0-2.394-.74-2.394-1.95 0-1.566 1.765-2.035 4.368-2.331v-.111c0-1.024-.555-1.382-1.246-1.382-.654 0-1.197.345-1.234 1.073h-1.592c.124-1.307 1.21-2.27 2.912-2.27 1.58 0 2.862.679 2.862 2.924 0 .21-.024 1.086-.024 1.69 0 1.05.074 1.641.197 2.196h-1.567a5.862 5.862 0 01-.11-.826c-.47.69-1.173.987-2.172.987zm2.023-3.195c-1.9.197-2.665.419-2.665 1.16 0 .48.383.875 1.148.875 1.06 0 1.517-.58 1.517-1.542v-.493z" fill="var(--icon-color,#333)"/>
    </g>
</svg>
