<svg viewBox="0 0 48 48" xmlns="http://www.w3.org/2000/svg" id="icon">
    <g fill="none" fill-rule="evenodd">
        <path d="M0 0h48v48H0z"/>
        <path d="M22.828 28.11c1.382 0 2.702.634 2.924 2.146H24.16c-.123-.549-.641-.939-1.418-.939-.63 0-1.074.232-1.074.634 0 .354.26.622.889.756l.888.195c1.32.293 2.443.622 2.443 1.976 0 1.317-1.37 2.122-2.875 2.122-1.628 0-2.862-.83-3.023-2.33h1.641c.099.635.555 1.11 1.431 1.11.728 0 1.197-.268 1.197-.743 0-.488-.518-.683-1.086-.805l-.987-.208c-1.246-.256-2.072-.768-2.072-1.963 0-1.183 1.283-1.951 2.714-1.951zm16.137 0c1.58 0 2.862.67 2.862 2.89 0 .207-.024 1.073-.024 1.67 0 1.037.074 1.623.197 2.171h-1.567c-.05-.207-.086-.5-.11-.817-.47.683-1.173.976-2.172.976-1.27 0-2.394-.732-2.394-1.927 0-1.549 1.765-2.012 4.368-2.305v-.11c0-1.012-.555-1.365-1.246-1.365-.654 0-1.197.341-1.234 1.06h-1.592c.124-1.292 1.21-2.243 2.912-2.243zM12.515 26v1.415h-4.75v2.195h4.49v1.414h-4.49v2.403h4.75v1.414H6V26h6.514zm2.763 0v4.915l2.418-2.635h1.912l-2.381 2.513 2.517 4.048H17.83L16.091 32l-.813.866v1.975h-1.703V26h1.703zm13.608.5v1.78h1.381v1.159h-1.381v3.39c0 .671.234.805.838.805h.519v1.207h-1.246c-1.518 0-1.814-.463-1.814-1.768V29.44h-.938v-1.16h.938V26.5h1.703zm4.145 1.78v1.147c.382-.805.987-1.134 1.752-1.134.11 0 .259.012.37.024v1.585a6.79 6.79 0 00-.703-.036c-.84 0-1.394.305-1.394 1.536v3.44h-1.703V28.28h1.678zm7.143 3.561c-1.9.196-2.665.415-2.665 1.147 0 .475.383.866 1.148.866 1.06 0 1.517-.574 1.517-1.525v-.488zm-22.213-16.69c2.04 0 3.319 1.586 3.245 3.922h-4.88c.086 1.13.873 1.684 1.672 1.684.516 0 1.045-.185 1.389-.762h1.745c-.356.983-1.327 2.077-3.122 2.077-2.127 0-3.368-1.586-3.368-3.491 0-1.967 1.364-3.43 3.319-3.43zM8.286 13l3.565 6.798V13h1.66v8.912h-2.287L7.66 15.114v6.798H6V13h2.286zm14.936 2.299l.885 4.573 1.033-4.573h1.807l1.045 4.56.885-4.56h1.684L29 21.912h-1.746l-1.205-5.015-1.217 5.015h-1.745L21.538 15.3h1.684zm-5.274 1.094c-.639 0-1.462.405-1.598 1.512h3.135c-.037-1.119-.824-1.512-1.537-1.512z" fill="var(--icon-color,#333)"/>
    </g>
</svg>
