<svg viewBox="0 0 48 48" xmlns="http://www.w3.org/2000/svg" id="icon">
    <g fill="none" fill-rule="evenodd">
        <path d="M0 0h48v48H0z"/>
        <path d="M29.682 30.652a2.508 2.508 0 013.455.077l1.065 1.066-10.201 10.201L13.8 31.795l1.065-1.066a2.508 2.508 0 013.455-.077l.009-.01 5.672 5.672 5.672-5.671zM24.001 6l10.201 10.2-1.065 1.067a2.51 2.51 0 01-3.455.076l-.009.01-5.672-5.672-5.672 5.672-.009-.01a2.508 2.508 0 01-3.455-.077L13.8 16.2 24.001 6z" fill="var(--icon-color,#333)"/>
    </g>
</svg>
