<svg viewBox="0 0 48 48" xmlns="http://www.w3.org/2000/svg" id="icon">
    <g fill="none" fill-rule="evenodd">
        <path d="M0 0h48v48H0z"/>
        <path d="M45.926 14a2.499 2.499 0 00-2.443 1.973l-3.01 13.96A3.997 3.997 0 0037.053 28H32.5a2.5 2.5 0 00-2.5 2.5V32h7.052l.761 3.525a3.983 3.983 0 01-1.878.475h-5.732a3.998 3.998 0 00-3.903 3.125l-.448 2A4 4 0 0029.754 46H41v-1.5a2.5 2.5 0 00-2.5-2.5h-8.738l.444-2h5.729c3.742 0 7.031-2.655 7.82-6.313L48 14h-2.074zM15 19h18v-7H15v7zm0-11h18V4H15v4zm0 15h18a4 4 0 004-4V4a4 4 0 00-4-4H15a4 4 0 00-4 4v15a4 4 0 004 4zm6.7 16.125A3.998 3.998 0 0017.797 36h-5.731a3.98 3.98 0 01-1.878-.475l.76-3.525H18v-1.5a2.5 2.5 0 00-2.5-2.5h-4.553c-1.43 0-2.71.761-3.419 1.933l-3.01-13.96A2.5 2.5 0 002.074 14H0l4.245 19.687C5.034 37.345 8.323 40 12.066 40h5.728l.445 2H9.5A2.5 2.5 0 007 44.5V46h11.246a4 4 0 003.903-4.875l-.449-2z" fill="var(--icon-color,#333)"/>
    </g>
</svg>
