<svg viewBox="0 0 48 48" xmlns="http://www.w3.org/2000/svg" id="icon">
    <g fill="none" fill-rule="evenodd">
        <path d="M0 48h48V0H0z"/>
        <path d="M25.008 24.017a3.5 3.5 0 100-6.999 3.5 3.5 0 000 6.999zM15.737 19h2.066a2.5 2.5 0 002.445-1.979l.122-.577c.314-1.469.164-3.031-.57-4.342C18.71 10.151 16.713 9 14.545 9H6.452a5.991 5.991 0 00-5.257 3.102c-.734 1.311-.883 2.873-.57 4.342L3.14 28.249a6.031 6.031 0 005.742 4.749h.126V45.5a2.5 2.5 0 002.5 2.5h1.5V32.999A3.999 3.999 0 008.98 29c-.934.006-1.734-.671-1.928-1.584l-2.557-12a1.992 1.992 0 01.402-1.675A1.99 1.99 0 016.452 13h8.092c.607 0 1.174.27 1.555.741.382.472.527 1.082.4 1.675L15.738 19zm-4.74-12a3.5 3.5 0 100-7 3.5 3.5 0 000 7zm35.98 22.556L43.61 13.75A6.028 6.028 0 0037.74 9h-1.464a6.028 6.028 0 00-5.87 4.75l-.474 2.229A2.5 2.5 0 0032.377 19h1l.943-4.417A1.998 1.998 0 0136.276 13h1.465c.945 0 1.76.66 1.956 1.583l3.41 16.001a1.989 1.989 0 01-.402 1.674A1.993 1.993 0 0141.15 33h-2.143a4 4 0 00-4 4v11h1.5a2.5 2.5 0 002.5-2.5V37h2.143c2.168 0 4.167-1.153 5.257-3.105.733-1.311.882-2.871.57-4.339zM37.008 7A3.5 3.5 0 1037.01.001 3.5 3.5 0 0037.008 7zm-10 19h-4a6 6 0 00-6 6v4a6 6 0 006 6v3.5a2.5 2.5 0 002.5 2.5h1.5v-6a4 4 0 00-4-4 2 2 0 01-2-2v-4a2 2 0 012-2h4a2 2 0 012 2v4.017h1.5a2.5 2.5 0 002.5-2.5V32a6 6 0 00-6-6z" fill="var(--icon-color,#333)"/>
    </g>
</svg>
