<svg viewBox="0 0 48 48" xmlns="http://www.w3.org/2000/svg" id="icon">
    <g fill="none" fill-rule="evenodd">
        <path d="M0 0h48v48H0z"/>
        <path d="M43.789 41.522c-.498 1.439-1.829 2.456-3.237 2.478a3.59 3.59 0 01-2.507-1.01l-.07-.07c-.643-.651-1.45-1.148-2.356-1.28-1.322-.19-2.645.242-3.448 1.127A3.5 3.5 0 0129.501 44a3.495 3.495 0 01-2.672-1.236c-.668-.75-1.726-1.172-2.829-1.172-1.104 0-2.161.422-2.828 1.172A3.499 3.499 0 0118.499 44a3.502 3.502 0 01-2.67-1.233c-.802-.886-2.125-1.318-3.446-1.127-.907.132-1.714.627-2.358 1.28l-.07.07A3.59 3.59 0 017.449 44c-1.408-.022-2.74-1.04-3.238-2.478a3.754 3.754 0 01-.207-1.35V30.74L4.007 29 24 19.5 43.993 29l.003 11.172a3.76 3.76 0 01-.207 1.35zm4.209-13.505L48 28a2 2 0 00-1.165-1.813l-.014-.015S25.865 15.72 25.79 15.662c-1.112-.877-2.519-.887-3.624 0-.116.091-20.987 10.51-20.987 10.51l-.014.015A1.997 1.997 0 000 28l.001.012.003 12.12a7.78 7.78 0 00.427 2.7C1.484 45.878 4.283 47.956 7.394 48c2.042.002 3.932-.741 5.372-2.163.08-.08.159-.16.235-.242A7.476 7.476 0 0018.499 48c2.171 0 4.13-.927 5.501-2.408A7.478 7.478 0 0029.501 48a7.474 7.474 0 005.498-2.405c.076.082.155.163.235.242 1.441 1.422 3.328 2.164 5.371 2.163 3.112-.044 5.911-2.122 6.964-5.17.304-.875.426-1.713.426-2.7l.003-12.114zM22 7h4V4h-4v3zm-9 9.498V11h22v5.498a2.5 2.5 0 002.5 2.5H39V11a4 4 0 00-4-4h-5V4a4 4 0 00-4-4h-4a4 4 0 00-4 4v3h-5a4 4 0 00-4 4v7.998h1.5a2.5 2.5 0 002.5-2.5zM13 32a2 2 0 100 4.001A2 2 0 0013 32m11 0a2 2 0 100 4.001A2 2 0 0024 32m11 0a2 2 0 100 4.001A2 2 0 0035 32" fill="var(--icon-color,#333)"/>
    </g>
</svg>
