<svg viewBox="0 0 48 48" xmlns="http://www.w3.org/2000/svg" id="icon">
    <g fill="none" fill-rule="evenodd">
        <path d="M0 0h48v48H0z"/>
        <path d="M34 40c-.58 0-1.12-.12-1.52-.3-1.42-.74-2.42-1.76-3.42-4.76-1.02-3.12-2.94-4.58-4.78-6-1.58-1.22-3.22-2.48-4.64-5.06C18.58 21.96 18 19.86 18 18c0-5.6 4.4-10 10-10s10 4.4 10 10h4c0-7.86-6.14-14-14-14s-14 6.14-14 14c0 2.52.76 5.3 2.14 7.8 1.82 3.3 3.96 4.96 5.7 6.3 1.62 1.24 2.78 2.14 3.42 4.1 1.2 3.64 2.74 5.68 5.46 7.1 1.02.46 2.14.7 3.28.7 4.42 0 8-3.58 8-8h-4c0 2.2-1.8 4-4 4zM15.28 5.28l-2.84-2.84A21.931 21.931 0 006 18c0 6.08 2.46 11.58 6.44 15.56l2.82-2.82A18.022 18.022 0 0110 18c0-4.98 2.02-9.48 5.28-12.72zM23 18c0 2.76 2.24 5 5 5s5-2.24 5-5-2.24-5-5-5-5 2.24-5 5z" fill="var(--icon-color,#333)"/>
    </g>
</svg>
