<svg viewBox="0 0 48 48" xmlns="http://www.w3.org/2000/svg" id="icon">
    <g fill="none" fill-rule="evenodd">
        <path d="M0 48h48V0H0z"/>
        <path d="M18.897 23.054a2.002 2.002 0 000-1.708l-3.586-7.595a8.029 8.029 0 01-.673-2.203l-.489-3.188 2.151 2.404a8.02 8.02 0 011.272 1.92l3.11 6.588 1.809-3.832a2 2 0 000-1.707l-1.302-2.758a12.034 12.034 0 00-1.908-2.878L12.641.674C11.314-.809 8.872.344 9.173 2.31l1.511 9.846a12.01 12.01 0 001.01 3.301l5.394 11.429 1.809-3.832zm12.014 8.517l-1.809 3.832a2 2 0 000 1.707l2.748 5.821-2.261 1.068-2.272-4.814-1.809 3.831a2.002 2.002 0 000 1.708l.464.982a4 4 0 005.324 1.91l2.262-1.067a4 4 0 001.909-5.325l-4.556-9.653zm2.45-20.022a8.022 8.022 0 01-.673 2.202L18.41 43.999l-2.261-1.068 14.278-30.248a8.034 8.034 0 011.272-1.919L33.85 8.36l-.489 3.189zM35.358.674l-6.64 7.423a12.034 12.034 0 00-1.908 2.878L12.532 41.224a4 4 0 001.91 5.325l2.261 1.067a3.999 3.999 0 005.324-1.91l14.278-30.249a12.01 12.01 0 001.01-3.301l1.511-9.846C39.127.344 36.685-.809 35.358.674zM45.5 40H45V0h-1.5A2.5 2.5 0 0041 2.5V40h-.5a2.5 2.5 0 00-2.5 2.5V44h3v4h1.5a2.5 2.5 0 002.5-2.5V44h3v-1.5a2.5 2.5 0 00-2.5-2.5zm-38 0H7V2.5A2.5 2.5 0 004.5 0H3v40h-.5A2.5 2.5 0 000 42.5V44h3v1.5A2.5 2.5 0 005.5 48H7v-4h3v-1.5A2.5 2.5 0 007.5 40z" fill="var(--icon-color,#333)"/>
    </g>
</svg>
