<svg viewBox="0 0 48 48" xmlns="http://www.w3.org/2000/svg" id="icon">
    <g fill="none" fill-rule="evenodd">
        <path d="M0 0h48v48H0z"/>
        <path d="M17.53 19.204c0 3.584 2.903 6.5 6.47 6.5 3.567 0 6.47-2.916 6.47-6.5s-2.903-6.5-6.47-6.5c-3.567 0-6.47 2.916-6.47 6.5M24 2.5c4.293 0 8.448 1.561 11.345 4.734.423.464 1.617 1.922 1.617 1.922l-1.13.981a2.478 2.478 0 01-3.508-.257A11.885 11.885 0 0024 6.5c-6.628 0-12.019 5.417-12.019 12.076 0 7.818 9.049 19.451 11.822 22.83.105.126.29.124.393 0 2.773-3.38 11.823-15.013 11.823-22.83 0-.742-.059-1.486-.191-2.207-.185-1.242.57-2.453 1.806-2.786l1.442-.387s.518 1.831.658 2.45c.215.952.266 1.945.266 2.93 0 8.58-7.978 19.581-12.733 25.375a4.215 4.215 0 01-3.268 1.549 4.214 4.214 0 01-3.267-1.549C15.978 38.157 8 27.157 8 18.576 8 9.711 15.178 2.5 24 2.5zm0 14.204a2.497 2.497 0 012.488 2.5c0 1.378-1.116 2.5-2.488 2.5a2.497 2.497 0 01-2.488-2.5c0-1.378 1.116-2.5 2.488-2.5z" fill="var(--icon-color,#333)"/>
    </g>
</svg>
