<svg viewBox="0 0 48 48" xmlns="http://www.w3.org/2000/svg" id="icon">
    <g fill="none" fill-rule="evenodd">
        <path d="M0 0h48v48H0z"/>
        <path d="M20 12.775v-1.75C20.031 8.58 21.672 7 24.18 7c2.394 0 3.787 1.467 3.82 4.025V13c0 .356.077.693.211 1h-8.544c.206-.364.333-.778.333-1.225M24.18 3c4.469 0 7.647 3.176 7.807 7.75h.012L32 14h3c3.309 0 6 2.691 6 6v19c0 3.308-2.691 6-6 6H13c-3.309 0-6-2.692-6-6v-2a2.5 2.5 0 012.5-2.5H11V39c0 1.102.896 2 2 2h22c1.103 0 2-.898 2-2V20c0-1.104-.897-2-2-2H13a2 2 0 00-2 2v9.5H9.5A2.5 2.5 0 017 27v-7c0-3.309 2.691-6 6-6h3l.001-2L16 10.974l.001-.224h.013C16.181 6.247 19.577 3 24.18 3zm-.68 23a2.5 2.5 0 012.5 2.5V34h-1.5a2.5 2.5 0 01-2.5-2.5V26z" fill="var(--icon-color,#333)"/>
    </g>
</svg>
