<svg viewBox="0 0 48 48" xmlns="http://www.w3.org/2000/svg" id="icon">
    <g fill="none" fill-rule="evenodd">
        <path d="M0 48h48V0H0z"/>
        <path d="M34.831 12.103A5.993 5.993 0 0029.573 9h-9.092a5.99 5.99 0 00-5.257 3.103c-.734 1.312-.882 2.873-.57 4.342L17.17 28.25a6.031 6.031 0 005.742 4.749h.126V45.5a2.5 2.5 0 002.5 2.5h1.5V33a4.001 4.001 0 00-4.028-4c-.934.007-1.734-.669-1.928-1.583l-2.557-12.001a1.99 1.99 0 01.402-1.674A1.992 1.992 0 0120.481 13h9.092c.607 0 1.174.271 1.555.742a1.99 1.99 0 01.401 1.674L29.914 23h2.066c1.18 0 2.2-.824 2.445-1.979l.975-4.576c.313-1.469.164-3.03-.569-4.342M25.027 7a3.5 3.5 0 10.001-6.999 3.5 3.5 0 000 6.999" fill="var(--icon-color,#333)"/>
    </g>
</svg>
