<svg viewBox="0 0 48 48" xmlns="http://www.w3.org/2000/svg" id="icon">
    <g fill="none" fill-rule="evenodd">
        <path d="M0 48h48V0H0z"/>
        <path d="M44.977 29.556L41.61 13.75A6.028 6.028 0 0035.742 9h-1.467a6.027 6.027 0 00-5.868 4.75l-3.032 14.229A2.5 2.5 0 0027.82 31h1l3.498-16.417A2 2 0 0134.275 13h1.467c.943 0 1.758.66 1.956 1.583l3.408 16.001a1.992 1.992 0 01-.401 1.674A1.992 1.992 0 0139.15 33h-2.142a4 4 0 00-4 4v11h1.5a2.5 2.5 0 002.5-2.5V37h2.142c2.169 0 4.168-1.152 5.259-3.104.732-1.311.88-2.871.568-4.34M35.007 7a3.5 3.5 0 100-7 3.5 3.5 0 000 7M17.544 9H8.452c-2.168 0-4.166 1.151-5.257 3.103-.734 1.311-.883 2.872-.57 4.342L5.14 28.25a6.033 6.033 0 005.742 4.749h.126V45.5a2.5 2.5 0 002.5 2.5h1.5V33a4 4 0 00-4.028-4c-.934.007-1.733-.67-1.928-1.583L6.496 15.416a1.99 1.99 0 01.4-1.674A1.992 1.992 0 018.453 13h9.09c.608 0 1.175.271 1.556.742a1.99 1.99 0 01.4 1.674L17.885 23h2.067a2.5 2.5 0 002.445-1.979l.975-4.576c.313-1.47.164-3.031-.57-4.342A5.993 5.993 0 0017.543 9m-4.545-2a3.5 3.5 0 100-7 3.5 3.5 0 000 7" fill="var(--icon-color,#333)"/>
    </g>
</svg>
