<svg viewBox="0 0 48 48" xmlns="http://www.w3.org/2000/svg" id="icon">
    <g fill="none" fill-rule="evenodd">
        <path d="M0 0h48v48H0z"/>
        <path d="M43.922 26.481v12.433c0 1.803-1.748 3.263-3.92 3.3C39.15 44.982 36.57 47 33.525 47c-3.042 0-5.621-2.015-6.478-4.78H21.89c-.855 2.765-3.435 4.78-6.477 4.78-3.044 0-5.625-2.017-6.48-4.785-2.177-.03-3.931-1.494-3.931-3.3V26.48h38.92zm-10.398 10.96a2.783 2.783 0 00-2.78 2.78 2.783 2.783 0 002.78 2.78 2.783 2.783 0 002.779-2.78 2.783 2.783 0 00-2.78-2.78zm-18.112 0a2.783 2.783 0 00-2.78 2.78 2.783 2.783 0 002.78 2.78 2.783 2.783 0 002.779-2.78 2.783 2.783 0 00-2.78-2.78zm24.51-6.96H9v7.554c.912-2.668 3.437-4.594 6.41-4.594 3.043 0 5.623 2.015 6.478 4.78h5.157c.856-2.765 3.436-4.78 6.478-4.78 2.96 0 5.476 1.91 6.398 4.56v-7.52zM24.232 1c3.86 0 7 3.141 7 7 0 .157-.012.313-.023.469 7.487 2.361 12.713 8.546 12.713 16.012-2.11 0-3.893-1.427-4.522-3.441-1.75-5.599-7.695-9.612-14.955-9.612-7.245 0-13.178 4.013-14.923 9.611C8.894 23.054 7.11 24.481 5 24.481c0-7.324 5.019-13.419 12.264-15.878-.018-.2-.031-.4-.031-.603 0-3.859 3.14-7 7-7zm0 13.481a4 4 0 01-4 4 4 4 0 01-4 4v-4a4 4 0 014-4zm0-9.481a2.992 2.992 0 00-2.965 2.666 22.804 22.804 0 013.178-.238c.937 0 1.849.074 2.749.181C26.999 6.141 25.753 5 24.233 5z" fill="var(--icon-color,#333)"/>
    </g>
</svg>
