<svg viewBox="0 0 48 48" xmlns="http://www.w3.org/2000/svg" id="icon">
    <g fill="none" fill-rule="evenodd">
        <path d="M0 0h48v48H0z"/>
        <path d="M39.29 10a3.5 3.5 0 100-7 3.5 3.5 0 000 7zm7.986 5.104A5.995 5.995 0 0042.018 12h-.9a6 6 0 00-5.868 4.745l-.145.674A1.998 1.998 0 0133.15 19H31.5a2.5 2.5 0 00-2.5 2.5V23h4.15a6.001 6.001 0 005.868-4.746l.143-.67A2.002 2.002 0 0141.12 16h.9c.606 0 1.172.271 1.554.742.382.471.528 1.081.402 1.674l-2.374 11.001A2 2 0 0139.644 31H33.36a5.961 5.961 0 00-5.856 4.698L25.195 46h2.108a2.5 2.5 0 002.441-1.957l1.663-7.477A2.002 2.002 0 0133.36 35h6.284a6.002 6.002 0 005.87-4.75l2.332-10.807c.312-1.468.164-3.028-.57-4.339zM32 14.5a2.5 2.5 0 00-2.5-2.5h-11a2.5 2.5 0 00-2.5 2.5V16h16v-1.5zM24 10a3.5 3.5 0 100-7 3.5 3.5 0 100 7zM11 26.5a2.5 2.5 0 002.5 2.5h21a2.5 2.5 0 002.5-2.5V25H11v1.5zM8.711 10a3.5 3.5 0 100-7 3.5 3.5 0 000 7zm5.93 21H8.355c-.944 0-1.759-.66-1.957-1.583L4.025 18.416a1.989 1.989 0 01.402-1.674A1.993 1.993 0 015.981 16h.9c.944 0 1.761.66 1.958 1.584l.143.67A6 6 0 0014.85 23H19v-1.5a2.5 2.5 0 00-2.5-2.5h-1.65a2 2 0 01-1.956-1.581l-.144-.674A6 6 0 006.883 12h-.902c-2.168 0-4.167 1.153-5.257 3.104-.734 1.311-.882 2.871-.57 4.339L2.486 30.25A6 6 0 008.356 35h6.283a2 2 0 011.953 1.566l1.664 7.477A2.5 2.5 0 0020.697 46h2.108l-2.309-10.302A5.96 5.96 0 0014.641 31z" fill="var(--icon-color,#333)"/>
    </g>
</svg>
