<svg viewBox="0 0 48 48" xmlns="http://www.w3.org/2000/svg" id="icon">
    <g fill="none" fill-rule="evenodd">
        <path d="M0 48h48V0H0z"/>
        <path d="M21.823 4.809a10.96 10.96 0 00-.028 1.64c.276 4.799 3.584 8.72 7.952 10.003a7.06 7.06 0 01-4.204 1.694 7.093 7.093 0 01-7.482-6.667 7.095 7.095 0 013.762-6.67zm3.949 17.33c4.09-.234 7.7-2.693 9.425-6.415l.009-.02a2.004 2.004 0 00-1.963-2.817c-3.89.21-7.231-2.775-7.454-6.667a6.978 6.978 0 01.642-3.378l.011-.024A2 2 0 0024.563 0l-.064.004c-6.104.35-10.782 5.6-10.431 11.704.351 6.103 5.601 10.782 11.704 10.43zM45.5 32H34.821l-4.243-4.241A5.996 5.996 0 0026.336 26H22a6 6 0 00-6 6v4h1.5a2.5 2.5 0 002.5-2.5V32a2 2 0 012-2h4.336a2 2 0 011.414.586l4.243 4.243a3.999 3.999 0 002.828 1.17H48v-1.5a2.5 2.5 0 00-2.5-2.5zM4 31.5A2.5 2.5 0 001.5 29H0v9.5a4 4 0 004 4V48h1.5A2.5 2.5 0 008 45.5v-3h32v3a2.5 2.5 0 002.5 2.5H44v-5.5a4 4 0 004-4H4v-7zm6 4.5a3.5 3.5 0 10.001-6.998A3.5 3.5 0 0010 36z" fill="var(--icon-color,#333)"/>
    </g>
</svg>
