<svg viewBox="0 0 48 48" xmlns="http://www.w3.org/2000/svg" id="icon">
    <g fill="none" fill-rule="evenodd">
        <path d="M0 0h48v48H0z"/>
        <path d="M35.836 7.821l1.08 6.83 6.209 3.166-3.132 6.192 3.15 6.192-6.263 3.167-1.08 6.828-6.881-1.079-4.9 4.883-4.919-4.954-6.829 1.133-1.097-6.882L5 30.147l3.149-6.191-3.131-6.14 6.21-3.201 1.079-6.776 6.846 1.132L24.071 4l4.9 4.9 6.865-1.079zm-16.188 7.342a2.654 2.654 0 100 5.308 2.654 2.654 0 000-5.308zm8.846 12.384a2.654 2.654 0 100 5.307 2.654 2.654 0 000-5.307zM17.72 32.854l15.197-15.196-2.495-2.495L15.226 30.36l2.494 2.494z" fill="var(--icon-color,#333)"/>
    </g>
</svg>
