<svg viewBox="0 0 48 48" xmlns="http://www.w3.org/2000/svg" id="icon">
    <g fill="none" fill-rule="evenodd">
        <path d="M0 48h48V0H0z"/>
        <path d="M26 25h-1.5a2.5 2.5 0 00-2.5 2.5V29h3.683c4.789 0 8.977-3.606 9.296-8.384C35.33 15.375 31.167 11 26 11h-8a4 4 0 00-4 4v22h1.5a2.5 2.5 0 002.5-2.5V15h7.777c2.61 0 4.945 1.903 5.199 4.5A5.006 5.006 0 0126 25M42 0H6a6 6 0 00-6 6v24.5A2.5 2.5 0 002.5 33H4V6a2 2 0 012-2h36a2 2 0 012 2v36a2 2 0 01-2 2H6a2 2 0 01-2-2v-5H2.5A2.5 2.5 0 000 39.5V42a6 6 0 006 6h36a6 6 0 006-6V6a6 6 0 00-6-6" fill="var(--icon-color,#333)"/>
    </g>
</svg>
