<svg viewBox="0 0 20 20" xmlns="http://www.w3.org/2000/svg" id="icon">
    <g fill="none" fill-rule="evenodd">
        <path d="M0 20h20V0H0z"/>
        <path d="M17.583 6.612a.839.839 0 01-.298.055h-5.807a.832.832 0 01-.425-.117L7.77 4.605 6.63 1.889a1.041 1.041 0 00-.96-.639H4.552l.525 1.25h-.501a2.5 2.5 0 00-2.5 2.5v.041l-1.541.59a.833.833 0 00-.48 1.077l.526 1.364a2.5 2.5 0 002.296 1.511H4.16v1.829c0 .523.165 1.033.47 1.458l.78 1.086v4.794h.625c.576 0 1.042-.466 1.042-1.042v-3.751c0-.35-.11-.69-.314-.973l-.78-1.086a.834.834 0 01-.156-.487V9.583c0-.92-.746-1.666-1.667-1.666H2.878a.833.833 0 01-.778-.535l-.19-.492.683-.261c.66-.253 1.162-.882 1.15-1.588V5a.82.82 0 01.834-.832h1.201l.455 1.082c.138.33.38.607.687.789l3.284 1.945c.386.229.826.35 1.274.35h5.807c.306 0 .609-.056.895-.166l1.145-.439c.402-.154.668-.541.668-.972V5.688l-2.41.924zm1.695 3.567a1.041 1.041 0 00-1.345-.6l-.584.224.506 1.32a.828.828 0 01.055.298v7.327h.625c.576 0 1.042-.466 1.042-1.042v-6.285c0-.306-.056-.609-.166-.894l-.133-.348zm-3.935 1.716a1.667 1.667 0 00-1.945-.577l-3.9 1.496a2.5 2.5 0 00-1.605 2.36l.017 3.576.622-.003a1.042 1.042 0 001.037-1.05l-.01-2.54a.835.835 0 01.537-.787l3.898-1.496 1.257 1.73a.84.84 0 01.16.49v3.656h.624c.576 0 1.042-.466 1.042-1.042v-2.615c0-.528-.167-1.042-.477-1.468l-1.257-1.73z" fill="var(--icon-color,#333)"/>
        <path d="M.5.5l19 19" stroke="var(--icon-color,#333)" stroke-linecap="round"/>
    </g>
</svg>
