<svg viewBox="0 0 48 48" xmlns="http://www.w3.org/2000/svg" id="icon">
    <g fill="none" fill-rule="evenodd">
        <path d="M0 0h48v48H0z"/>
        <path d="M29.173 41.14L19.16 15.41a8.442 8.442 0 00-.724-1.41h4.959a4.489 4.489 0 014.183 2.861L37.59 42.59c.194.502.445.966.721 1.41h-4.957a4.458 4.458 0 01-4.181-2.86zM4 10V6a2 2 0 012-2h4a2 2 0 012 2v4H4zm14-6h4a2 2 0 012 2v4.046c-.202-.014-.4-.046-.605-.046H16V6a2 2 0 012-2zm27.5 40a4.456 4.456 0 01-4.181-2.86L31.305 15.41A8.466 8.466 0 0028 11.373V6a6 6 0 00-6-6h-4a5.973 5.973 0 00-4 1.537A5.975 5.975 0 0010 0H6a6 6 0 00-6 6v39.5A2.5 2.5 0 002.5 48H4v-7h8v-1.5A2.5 2.5 0 009.5 37H4v-5h8v-1.5A2.5 2.5 0 009.5 28H4v-5h8v-1.5A2.5 2.5 0 009.5 19H4v-5h7.25a4.49 4.49 0 014.184 2.861l10.01 25.729A8.435 8.435 0 0033.355 48H48v-1.5a2.5 2.5 0 00-2.5-2.5z" fill="var(--icon-color,#333)"/>
    </g>
</svg>
