<svg viewBox="0 0 48 48" xmlns="http://www.w3.org/2000/svg" id="icon">
    <g fill="none" fill-rule="evenodd">
        <path d="M0 0h48v48H0z"/>
        <path d="M46.127 26l-.172.006c-1.131.078-2.058.917-2.289 2.043a19.882 19.882 0 01-5.446 10.1c-7.817 7.802-20.535 7.801-28.351 0-7.816-7.803-7.815-20.497 0-28.298 7.706-7.692 20.175-7.799 28.016-.323h-1.857a2.502 2.502 0 00-2.505 2.501v1.501h11.166V2.489h-1.504a2.504 2.504 0 00-2.506 2.501v1.666c-9.407-8.994-24.39-8.873-33.645.365-9.379 9.361-9.379 24.595 0 33.958 9.378 9.361 24.642 9.362 34.021 0A23.89 23.89 0 0048 26h-1.873z" fill="var(--icon-color,#333)"/>
    </g>
</svg>
