<svg viewBox="0 0 48 48" xmlns="http://www.w3.org/2000/svg" id="icon">
    <g fill="none" fill-rule="evenodd">
        <path d="M0 0h48v48H0z"/>
        <path d="M33.687 10.613a9.679 9.679 0 01-1.858 5.72l-2.491 3.426A7.2 7.2 0 0028.241 22h-3.109a7.2 7.2 0 00-1.097-2.241l-2.49-3.425a9.684 9.684 0 01-1.858-5.721V8h14v2.613zm6-6.613a5.97 5.97 0 00-3.352 1.025A3.967 3.967 0 0033.687 4h-14c-2.206 0-4 1.794-4 4v2.613c0 2.918 1.324 5.709 3.04 8.071L20.732 22h-7.045v1.5a2.5 2.5 0 002.5 2.5h21a2.5 2.5 0 002.5-2.5V22h-7.032l2.41-3.317a13.641 13.641 0 002.622-8.07V10c0-1.103.897-2 2-2s2 .897 2 2c0 .661-.323 1.249-.82 1.613-.697.511-1.18 1.259-1.18 2.123V16c3.309 0 6-2.692 6-6 0-3.309-2.691-6-6-6zM28.185 35h-9.674a8 8 0 01-7.82-6.317L7.517 13.972A2.5 2.5 0 005.073 12H3l3.781 17.525A12 12 0 0018.512 39h.175v3h-3.5a2.5 2.5 0 00-2.5 2.5V46h16v-1.5a2.5 2.5 0 00-2.5-2.5h-3.5v-3h7.998v-1.5a2.5 2.5 0 00-2.5-2.5z" fill="var(--icon-color,#333)"/>
    </g>
</svg>
