<svg viewBox="0 0 48 48" xmlns="http://www.w3.org/2000/svg" id="icon">
    <g fill="none" fill-rule="evenodd">
        <path d="M0 0h48v48H0z"/>
        <path d="M21.5 0H20v13a4 4 0 01-4 4V0h-1.5A2.5 2.5 0 0012 2.5V17a4 4 0 01-4-4V0H6.5A2.5 2.5 0 004 2.5V13a8 8 0 008 8v24.5a2.5 2.5 0 002.5 2.5H16V21a8 8 0 008-8V2.5A2.5 2.5 0 0021.5 0zM36 26.98h-4V8c0-2.206 1.793-4 4-4v22.98zM38 0h-2a8 8 0 00-8 8v18.98a4 4 0 004 4h4V48h1.5a2.5 2.5 0 002.5-2.5V2a2 2 0 00-2-2z" fill="var(--icon-color,#333)"/>
    </g>
</svg>
