<svg viewBox="0 0 48 48" xmlns="http://www.w3.org/2000/svg" id="icon">
    <g fill-rule="evenodd">
        <path d="M24.25 6a2.25 2.25 0 01.904 4.31c.618 1.069 3.05 1.47 5.411 1.861 3.083.509 6.267 1.034 6.43 3.39l4.426 8.853a.75.75 0 01-.67 1.086h-9a.75.75 0 01-.671-1.086l4.407-8.814c-.212-1.131-2.838-1.566-5.166-1.948-1.91-.316-3.97-.656-5.32-1.47v19.243a3.758 3.758 0 003-3.675.75.75 0 011.5 0 5.258 5.258 0 01-4.5 5.196v3.075c4.261.234 7.499 2.447 7.499 5.229a.75.75 0 01-.75.75h-15a.75.75 0 01-.75-.75c0-2.782 3.238-4.996 7.5-5.23v-3.073A5.258 5.258 0 0119 27.75a.75.75 0 011.5 0 3.759 3.759 0 003 3.675V12.18c-1.35.815-3.41 1.154-5.32 1.47-2.328.383-4.955.818-5.166 1.949l4.407 8.814a.75.75 0 01-.67 1.086h-9a.75.75 0 01-.671-1.086l4.426-8.853c.162-2.357 3.347-2.881 6.43-3.39 2.362-.391 4.793-.792 5.413-1.86A2.25 2.25 0 0122 8.25C22 7.01 23.01 6 24.25 6zm0 31.5c-3.198 0-5.963 1.313-6.608 3H30.86c-.647-1.688-3.41-3-6.61-3zm-12-20.073L8.964 24h6.573l-3.287-6.573zm24 0L32.964 24h6.573l-3.287-6.573zm-12-9.927a.75.75 0 100 1.5.75.75 0 000-1.5zm12 22.5A5.256 5.256 0 0131 24.75a.75.75 0 011.5 0 3.755 3.755 0 003.75 3.75A3.755 3.755 0 0040 24.75a.75.75 0 011.5 0A5.256 5.256 0 0136.25 30m-24 0A5.256 5.256 0 017 24.75a.75.75 0 011.5 0 3.755 3.755 0 003.75 3.75A3.755 3.755 0 0016 24.75a.75.75 0 011.5 0A5.256 5.256 0 0112.25 30" fill="var(--icon-color,#333)"/>
    </g>
</svg>
