<svg viewBox="0 0 48 48" xmlns="http://www.w3.org/2000/svg" id="icon">
    <g fill="none" fill-rule="evenodd">
        <path d="M0 0h48v48H0z"/>
        <path d="M44.268 41.404l-8.203-8.203A17.892 17.892 0 0040 22a17.9 17.9 0 00-3.95-11.222l-1.425 1.425c-.776.777-.98 1.984-.438 2.94A13.85 13.85 0 0136 22c0 7.719-6.28 14-14 14-7.719 0-14-6.281-14-14 0-7.72 6.281-14 14-14 2.494 0 4.831.663 6.857 1.813.956.542 2.163.339 2.94-.439l1.425-1.425A17.903 17.903 0 0022 4C12.076 4 4 12.075 4 22s8.076 18 18 18c4.252 0 8.159-1.491 11.243-3.966L43.207 46l1.061-1.061a2.498 2.498 0 000-3.535" fill="var(--icon-color,#333)"/>
    </g>
</svg>
