<svg viewBox="0 0 48 48" xmlns="http://www.w3.org/2000/svg" id="icon">
    <g fill="none" fill-rule="evenodd">
        <path d="M0 0h48v48H0z"/>
        <path d="M20.318 32h-1.5v1.5a2.5 2.5 0 002.5 2.5h1.5v-1.5a2.5 2.5 0 00-2.5-2.5m0 6h-1.5v1.5a2.5 2.5 0 002.5 2.5h1.5v-1.5a2.5 2.5 0 00-2.5-2.5m0 6h-1.5v1.5a2.5 2.5 0 002.5 2.5h1.5v-1.5a2.5 2.5 0 00-2.5-2.5m12-12h-1.5v1.5a2.5 2.5 0 002.5 2.5h1.5v-1.5a2.5 2.5 0 00-2.5-2.5m0 6h-1.5v1.5a2.5 2.5 0 002.5 2.5h1.5v-1.5a2.5 2.5 0 00-2.5-2.5m-6-6h-1.5v1.5a2.5 2.5 0 002.5 2.5h1.5v-1.5a2.5 2.5 0 00-2.5-2.5m0 6h-1.5v1.5a2.5 2.5 0 002.5 2.5h1.5v-1.5a2.5 2.5 0 00-2.5-2.5m0 6h-1.5v1.5a2.5 2.5 0 002.5 2.5h1.5v-1.5a2.5 2.5 0 00-2.5-2.5m-12-12h-1.5v1.5a2.5 2.5 0 002.5 2.5h1.5v-1.5a2.5 2.5 0 00-2.5-2.5m0 6h-1.5v1.5a2.5 2.5 0 002.5 2.5h1.5v-1.5a2.5 2.5 0 00-2.5-2.5m20.316-12H13c.943-5.114 5.435-9 10.818-9s9.875 3.886 10.816 9M29.818 4h6.5a2.5 2.5 0 002.5-2.5V0h-9a8 8 0 00-8 8v5.148c-6.424.861-11.577 5.789-12.75 12.109-.139.747-.071 1.568.262 2.396C9.916 29.109 11.406 30 12.975 30h21.69c1.582 0 3.087-.903 3.657-2.378.316-.817.384-1.627.244-2.365-1.172-6.32-6.325-11.248-12.748-12.109V8a4 4 0 014-4" fill="var(--icon-color,#333)"/>
    </g>
</svg>
