<svg viewBox="0 0 40 38" xmlns="http://www.w3.org/2000/svg" id="icon">
    <g fill="none" fill-rule="evenodd">
        <path d="M0 0h48v48H0z"/>
        <path d="M18 26c0-1.103.897-2 2-2s2 .897 2 2-.897 2-2 2-2-.897-2-2zm-6-14c0 2.606-1.673 4.823-4 5.65V38H4V17.65c-2.327-.827-4-3.044-4-5.65 0-2.606 1.673-4.823 4-5.65V0h4v6.35c2.327.827 4 3.044 4 5.65zm-4 0c0-1.103-.897-2-2-2s-2 .897-2 2 .897 2 2 2 2-.897 2-2zm18 14c0 2.606-1.673 4.823-4 5.65V38h-4v-6.35c-2.327-.827-4-3.044-4-5.65 0-2.606 1.673-4.823 4-5.65V0h4v20.35c2.327.827 4 3.044 4 5.65zm14-14c0 2.606-1.673 4.823-4 5.65V38h-4V17.65c-2.327-.827-4-3.044-4-5.65 0-2.606 1.673-4.823 4-5.65V0h4v6.35c2.327.827 4 3.044 4 5.65zm-4 0c0-1.103-.897-2-2-2s-2 .897-2 2 .897 2 2 2 2-.897 2-2z" fill="var(--icon-color,#333)"/>
    </g>
</svg>
