<svg viewBox="0 0 48 48" xmlns="http://www.w3.org/2000/svg" id="icon">
    <g fill="none" fill-rule="evenodd">
        <path d="M0 0h48v48H0z"/>
        <path d="M24 23.988a5 5 0 01-5-5 5 5 0 1110 0 5 5 0 01-5 5zm10.723-8.414L24 4.828 13.277 15.574c-1.258 1.262-.364 3.414 1.416 3.414H16v23.74h4v-7.132a4 4 0 018 0v7.132h4v-23.74h1.306c1.782 0 2.674-2.152 1.416-3.414zM25 15.988h-2v3.33l1.26 1.716 1.614-1.182L25 18.66v-2.672zM5 27.198v15.53h9v-17.53H7a2 2 0 00-2 2zm36-2h-7v17.53h9v-15.53a2 2 0 00-2-2z" fill="var(--icon-color,#333)"/>
    </g>
</svg>
