<svg viewBox="0 0 48 48" xmlns="http://www.w3.org/2000/svg" id="icon">
    <g fill="none" fill-rule="evenodd">
        <path d="M0 48h48V0H0z"/>
        <path d="M33 9.5A2.5 2.5 0 0030.5 7h-4A2.5 2.5 0 0024 9.5V11h9V9.5zM43.958 24l-2.356-6.931A6.002 6.002 0 0035.921 13H21.08a6 6 0 00-5.681 4.069L13.043 24H9v1.5a2.5 2.5 0 002.5 2.5h1.543a4 4 0 003.787-2.712l2.357-6.932A1.999 1.999 0 0121.08 17h14.841c.856 0 1.618.545 1.893 1.356l2.357 6.932A4 4 0 0043.958 28H45.5a2.5 2.5 0 002.5-2.5V24h-4.042zM44 32.5V42a2 2 0 01-2 2h-1a2 2 0 01-2-2 4 4 0 00-4-4H22a4 4 0 00-4 4 2 2 0 01-2 2h-.999a2 2 0 01-2-2v-9.5a2.5 2.5 0 00-2.5-2.5h-1.5v12a6 6 0 006 6H16a6 6 0 006-6h13a6 6 0 006 6h1a6 6 0 006-6V30h-1.5a2.5 2.5 0 00-2.5 2.5zm-32-31V0H4a4 4 0 00-4 4v44h1.5A2.5 2.5 0 004 45.5V4h5.5A2.5 2.5 0 0012 1.5zM17.5 34h22a2.5 2.5 0 002.5-2.5V30H15v1.5a2.5 2.5 0 002.5 2.5z" fill="var(--icon-color,#333)"/>
    </g>
</svg>
