<svg viewBox="0 0 48 48" xmlns="http://www.w3.org/2000/svg" id="icon">
    <g fill="none" fill-rule="evenodd">
        <path d="M0 0h48v48H0z"/>
        <path d="M1.5 25A2.5 2.5 0 014 27.5V41a2 2 0 002 2h2a2 2 0 002-2 4 4 0 014-4h20a4 4 0 014 4 2 2 0 002 2h2a2 2 0 002-2V27.5a2.5 2.5 0 012.5-2.5H48v16a6 6 0 01-6 6h-2a6 6 0 01-6-6H14a6 6 0 01-6 6H6a6 6 0 01-6-6V25zM42 25v1.5a2.5 2.5 0 01-2.5 2.5h-31A2.5 2.5 0 016 26.5V25h36zM35.875 7a6.003 6.003 0 015.681 4.069L43.912 18H48v1.5a2.5 2.5 0 01-2.5 2.5h-1.588a4 4 0 01-3.787-2.712l-2.357-6.932A2 2 0 0035.875 11h-23.75a2 2 0 00-1.894 1.356l-2.356 6.932A4 4 0 014.088 22H2.5A2.5 2.5 0 010 19.5V18h4.088l2.356-6.931A6.002 6.002 0 0112.125 7zM26 1a2.5 2.5 0 012.5 2.5V5h-9V3.5A2.5 2.5 0 0122 1z" fill="var(--icon-color,#333)"/>
    </g>
</svg>
