<svg viewBox="0 0 48 48" xmlns="http://www.w3.org/2000/svg" id="icon">
    <g fill="none" fill-rule="evenodd">
        <path d="M0 48h48V0H0z"/>
        <path d="M19.5 19H18v4H5c-.55 0-1-.45-1-1v-2h.5c3.032 0 5.5-2.467 5.5-5.5S7.532 9 4.5 9h-.516L4 7c0-.55.45-1 1-1h13v1.5a2.5 2.5 0 002.5 2.5H22V6h9c.55 0 1 .45 1 1v2h-.5a5.506 5.506 0 00-5.5 5.5c0 3.033 2.468 5.5 5.5 5.5h.5v2a1 1 0 01-1 1h-9v-1.5a2.5 2.5 0 00-2.5-2.5zM36 22v-4a2 2 0 00-2-2h-2.5c-.827 0-1.5-.673-1.5-1.5s.673-1.5 1.5-1.5H34a2 2 0 002-2V7a5 5 0 00-5-5H5a5 5 0 00-5 5v4a2 2 0 002 2h2.5c.827 0 1.5.673 1.5 1.5S5.327 16 4.5 16H2a2 2 0 00-2 2v4a5 5 0 005 5h26a5 5 0 005-5zm-14-7.5a2.5 2.5 0 00-2.5-2.5H18v2.5a2.5 2.5 0 002.5 2.5H22v-2.5zM43.5 32H46a2 2 0 002-2v-4a5 5 0 00-5-5h-1.5a2.5 2.5 0 00-2.5 2.5V25h4c.55 0 1 .45 1 1v2h-.5a5.506 5.506 0 00-5.5 5.5c0 3.033 2.468 5.5 5.5 5.5h.5v2a1 1 0 01-1 1h-9v-1.5a2.5 2.5 0 00-2.5-2.5H30v4H17c-.55 0-1-.45-1-1v-2h.5a5.5 5.5 0 005.5-5.5 2.5 2.5 0 00-2.5-2.5H18v2.5a1.5 1.5 0 01-1.5 1.5H14a2 2 0 00-2 2v4a5 5 0 005 5h26a5 5 0 005-5v-4a2 2 0 00-2-2h-2.5c-.827 0-1.5-.673-1.5-1.5s.673-1.5 1.5-1.5zM30 31v2.5a2.5 2.5 0 002.5 2.5H34v-2.5a2.5 2.5 0 00-2.5-2.5H30z" fill="var(--icon-color,#333)"/>
    </g>
</svg>
