<svg viewBox="0 0 48 48" xmlns="http://www.w3.org/2000/svg" id="icon">
    <g fill="none" fill-rule="evenodd">
        <path d="M0 48h48V0H0z"/>
        <path d="M26.098 17.952l-1.06 1.061 2.182 2.182a2.5 2.5 0 003.535 0l1.061-1.061-2.182-2.182a2.5 2.5 0 00-3.536 0m17.316 1.639l-6.07 6.071-1.993-1.992a2.498 2.498 0 00-3.535 0l-1.06 1.06 3.76 3.76-14.894 14.893c-.78.78-2.046.78-2.828 0l-1.43-1.432a6.593 6.593 0 000-9.314 6.593 6.593 0 00-9.315 0l-1.43-1.432a1.998 1.998 0 010-2.828L19.51 13.485l1.992 1.992a2.5 2.5 0 003.535 0l1.061-1.061-3.76-3.759 6.071-6.071a2 2 0 012.828 0l1.431 1.431a6.593 6.593 0 00.001 9.313 6.592 6.592 0 009.314.001l1.431 1.432a2 2 0 010 2.828m2.83-5.657l-2.847-2.845a1.998 1.998 0 00-2.828 0l-1.406 1.405a2.592 2.592 0 01-4.079-.525c-.61-1.025-.357-2.353.487-3.196l1.34-1.342a1.998 1.998 0 000-2.828l-2.845-2.845a6 6 0 00-8.486 0L1.726 25.612c-2.343 2.343-2.28 6.079.063 8.422l2.846 2.846c.781.78 2.047.78 2.828 0l1.416-1.416a2.592 2.592 0 014.072.539c.608 1.024.353 2.349-.489 3.192l-1.342 1.341a2 2 0 000 2.829l2.846 2.846a6.001 6.001 0 008.486 0L46.243 22.42a6.003 6.003 0 000-8.486" fill="var(--icon-color,#333)"/>
    </g>
</svg>
