<svg viewBox="0 0 48 48" xmlns="http://www.w3.org/2000/svg" id="icon">
    <g fill="none" fill-rule="evenodd">
        <path d="M0 48h48V0H0z"/>
        <path d="M33 13.5V12h-1.5a2.5 2.5 0 00-2.5 2.5V16h1.5a2.5 2.5 0 002.5-2.5zm-7 0V12h-1.5a2.5 2.5 0 00-2.5 2.5V16h1.5a2.5 2.5 0 002.5-2.5zm-11 19V34h1.5a2.5 2.5 0 002.5-2.5V30h-1.5a2.5 2.5 0 00-2.5 2.5zm-7 0V34h1.5a2.5 2.5 0 002.5-2.5V30h-1.5A2.5 2.5 0 008 32.5zm7-6V28h1.5a2.5 2.5 0 002.5-2.5V24h-1.5a2.5 2.5 0 00-2.5 2.5zm-7 0V28h1.5a2.5 2.5 0 002.5-2.5V24h-1.5A2.5 2.5 0 008 26.5zm7-6V22h1.5a2.5 2.5 0 002.5-2.5V18h-1.5a2.5 2.5 0 00-2.5 2.5zm-7 0V22h1.5a2.5 2.5 0 002.5-2.5V18h-1.5A2.5 2.5 0 008 20.5zm7-6V16h1.5a2.5 2.5 0 002.5-2.5V12h-1.5a2.5 2.5 0 00-2.5 2.5zm-7 0V16h1.5a2.5 2.5 0 002.5-2.5V12h-1.5A2.5 2.5 0 008 14.5zm32-1V12h-1.5a2.5 2.5 0 00-2.5 2.5V16h1.5a2.5 2.5 0 002.5-2.5zM44 30h-1.5a2.5 2.5 0 00-2.5 2.5V34h4v7a1 1 0 01-1 1h-2v-.5c0-3.033-2.468-5.5-5.5-5.5a5.506 5.506 0 00-5.5 5.5v.5h-2a1 1 0 01-1-1v-7h1.5a2.5 2.5 0 002.5-2.5V30h-4v-7a1 1 0 011-1h2v.5c0 3.033 2.468 5.5 5.5 5.5s5.5-2.467 5.5-5.5V22h2a1 1 0 011 1v7zm-1-12h-4a2 2 0 00-2 2v2.5c0 .827-.673 1.5-1.5 1.5s-1.5-.673-1.5-1.5V20a2 2 0 00-2-2h-4a5 5 0 00-5 5v18c0 2.75 2.25 5 5 5h4a2 2 0 002-2v-2.5c0-.827.673-1.5 1.5-1.5s1.5.673 1.5 1.5V44a2 2 0 002 2h4a5 5 0 005-5V23c0-2.75-2.25-5-5-5zM33 32.5V34h2.5a2.5 2.5 0 002.5-2.5V30h-2.5a2.5 2.5 0 00-2.5 2.5zM42 6h-4V2h-1.5A2.5 2.5 0 0034 4.5V6h-4V2h-1.5A2.5 2.5 0 0026 4.5V6h-4V2h-1.5A2.5 2.5 0 0018 4.5V6h-4V2h-1.5A2.5 2.5 0 0010 4.5V6H6a6 6 0 00-6 6v22a6 6 0 006 6h3v-1.5A2.5 2.5 0 006.5 36H6a2 2 0 01-2-2V12a2 2 0 012-2h36a2 2 0 012 2v4h1.5a2.5 2.5 0 002.5-2.5V12a6 6 0 00-6-6z" fill="var(--icon-color,#333)"/>
    </g>
</svg>
