<svg viewBox="0 0 48 48" xmlns="http://www.w3.org/2000/svg" id="icon">
    <g fill="none" fill-rule="evenodd">
        <path d="M0 48h48V0H0z"/>
        <path d="M13.5 23H12v3a4 4 0 004 4h12.621c1.717 0 2.636-2.021 1.507-3.315l-8.677-9.944A7.998 7.998 0 0015.424 14H8.5A2.5 2.5 0 006 16.5V18h9.424c1.155 0 2.255.5 3.013 1.371L24.221 26H16v-.5a2.5 2.5 0 00-2.5-2.5M0 41.5V43h4.5A2.5 2.5 0 007 40.5V39H2.5A2.5 2.5 0 000 41.5M45.5 44h-2.76l.655-.694 2.701-2.869a6.942 6.942 0 00.177-9.358L31.565 14.222A24 24 0 0013.48 6H2.5A2.5 2.5 0 000 8.5V10h13.482a19.998 19.998 0 0115.071 6.852L43.26 33.709a2.958 2.958 0 01-.076 3.986l-2.702 2.868-1.436 1.526A6.106 6.106 0 0134.62 44H25v-1a4 4 0 00-4-4h-9.5A2.5 2.5 0 009 41.5V43h12v1a4 4 0 004 4h23v-1.5a2.5 2.5 0 00-2.5-2.5M4 33.5V35h5.5a2.5 2.5 0 002.5-2.5V31H6.5A2.5 2.5 0 004 33.5m5-9V23H2.5A2.5 2.5 0 000 25.5V27h6.5A2.5 2.5 0 009 24.5m-5-9V14H2.5A2.5 2.5 0 000 16.5V18h1.5A2.5 2.5 0 004 15.5" fill="var(--icon-color,#333)"/>
    </g>
</svg>
