<svg viewBox="0 0 48 48" xmlns="http://www.w3.org/2000/svg" id="icon">
    <g fill="none" fill-rule="evenodd">
        <path d="M0 48h48V0H0z"/>
        <path d="M16 27v-1.5a2.5 2.5 0 00-2.5-2.5H13v-5h-1.5A2.5 2.5 0 009 20.5V23a4 4 0 004 4h3zm29.5 17h-3.366l3.108-3.301a10.133 10.133 0 002.422-9.538l-2.821-10.679A19.45 19.45 0 0026.038 6H2.5A2.5 2.5 0 000 8.5V10h26.035a15.454 15.454 0 0113.535 8H32a4 4 0 00-4 4v2.588A8.412 8.412 0 0036.412 33H37.5a2.5 2.5 0 002.5-2.5V29h-3.588A4.413 4.413 0 0132 24.588V22h9.106l2.69 10.182a6.104 6.104 0 01-1.467 5.776l-3.953 4.197A5.9 5.9 0 0134.095 44H25v-1a4 4 0 00-4-4h-9.5A2.5 2.5 0 009 41.5V43h12v1a4 4 0 004 4h23v-1.5a2.5 2.5 0 00-2.5-2.5zM4 24c0-4.411 3.589-8 8-8s8 3.589 8 8-3.589 8-8 8-8-3.589-8-8zm20 0c0-6.617-5.383-12-12-12S0 17.383 0 24s5.383 12 12 12 12-5.383 12-12z" fill="var(--icon-color,#333)"/>
    </g>
</svg>
