<svg viewBox="0 0 48 48" xmlns="http://www.w3.org/2000/svg" id="icon">
    <g fill="none" fill-rule="evenodd">
        <path d="M0 0h48v48H0z"/>
        <path d="M15.29 24.522l.71-9.556h15.998l.688 9.556-.004.002a14.27 14.27 0 01-17.392-.002zM14 32.828a2 2 0 114.001.002A2 2 0 0114 32.828zm9.988-25.87a3 3 0 110 6 3 3 0 010-6zM34 32.828a2 2 0 11-3.999.001 2 2 0 013.999 0zM32.344 43.72H38l-5.52-5.522c3.068-1.282 5.158-4.402 4.904-7.942L36.266 14.68a4 4 0 00-3.99-3.714h-3.39a5.004 5.004 0 00-4.898-6.008 5.004 5.004 0 00-4.898 6.008h-3.366a4 4 0 00-3.99 3.714l-1.118 15.576c-.254 3.54 1.836 6.66 4.906 7.942L10 43.72h5.658l4.89-4.892h6.906l4.89 4.892z" fill="var(--icon-color,#333)"/>
    </g>
</svg>
