<svg viewBox="0 0 48 48" xmlns="http://www.w3.org/2000/svg" id="icon">
    <g fill="none" fill-rule="evenodd">
        <path d="M0 0h48v48H0z"/>
        <path d="M12,4 L12,8 L28,8 L28,4 L32,4 L32,8 L36,8 L36,12 L32,12 L32,16 L36,16 L36,20 L32,20 L32,20 C30.6190622,20 29.2789852,20.174946 28.0007233,20.5038838 L28,20 L12,20 L12,24 L21.4158034,24.0007936 C20.1201187,25.1445603 19.011112,26.4949177 18.1403311,28.0003182 L12,28 L12,32 L16.5038838,32.0007233 C16.174946,33.2789852 16,34.6190622 16,36 L12,36 L12,40 L8,40 L8,36 L4,36 L4,32 L8,32 L8,28 L4,28 L4,24 L8,24 L8,20 L4,20 L4,16 L8,16 L8,12 L4,12 L4,8 L8,8 L8,4 L12,4 Z M28,12 L12,12 L12,16 L28,16 L28,12 Z" fill="var(--icon-color,#333)" fill-rule="nonzero"/>
        <path d="M32,24 C38.627417,24 44,29.372583 44,36 C44,42.627417 38.627417,48 32,48 C25.372583,48 20,42.627417 20,36 C20,29.372583 25.372583,24 32,24 Z M34,36 L32.5,36 C31.119,36 30,37.119 30,38.5 L30,38.5 L30,44 L31.5,44 C32.881,44 34,42.881 34,41.5 L34,41.5 L34,36 Z M32,28 C30.896,28 30,28.896 30,30 C30,31.104 30.896,32 32,32 C33.104,32 34,31.104 34,30 C34,28.896 33.104,28 32,28 Z" fill="var(--icon-color,#333)"/>
    </g>
</svg>
