<svg viewBox="0 0 48 48" xmlns="http://www.w3.org/2000/svg" id="icon">
    <g fill="none" fill-rule="evenodd">
        <path d="M0 48h48V0H0z"/>
        <path d="M29.732 41.15c.874.176 1.875.267 2.975.267a.79.79 0 110 1.583c-1.204 0-2.313-.101-3.29-.3a.792.792 0 01.315-1.55zm6.143-20.317c3.928 0 7.125 3.197 7.125 7.125 0 3.609-5.784 13.533-6.443 14.652a.794.794 0 01-1.365 0c-.658-1.12-6.442-11.043-6.442-14.652 0-3.928 3.197-7.125 7.125-7.125zM25.214 38.152a5.54 5.54 0 001.871 1.985.792.792 0 01-.852 1.335 7.09 7.09 0 01-2.395-2.538.79.79 0 111.376-.782zm10.66-15.735a5.548 5.548 0 00-5.54 5.541c0 2.388 3.533 9.123 5.54 12.665 2.008-3.542 5.542-10.277 5.542-12.665a5.548 5.548 0 00-5.541-5.541zm-12.008 9.948c.07.867.176 2 .39 3.05a.792.792 0 01-.776.95.79.79 0 01-.774-.636c-.232-1.133-.346-2.326-.418-3.237a.793.793 0 01.726-.854.796.796 0 01.852.727zM35.875 24a3.964 3.964 0 013.958 3.958 3.964 3.964 0 01-3.958 3.958 3.964 3.964 0 01-3.959-3.958A3.964 3.964 0 0135.875 24zm0 1.583a2.378 2.378 0 00-2.375 2.375 2.378 2.378 0 002.375 2.375 2.378 2.378 0 002.375-2.375 2.378 2.378 0 00-2.375-2.375zm-12.694.366c.204.9.346 1.9.459 3.246a.792.792 0 01-.722.857l-.068.001a.79.79 0 01-.787-.725c-.108-1.27-.24-2.204-.426-3.027a.793.793 0 01.597-.949c.42-.1.848.171.947.597zm-3.843-5.538a6.93 6.93 0 012.58 2.364.793.793 0 01-.664 1.222.791.791 0 01-.665-.363 5.25 5.25 0 00-1.995-1.825.791.791 0 11.744-1.398zm-5.611-1.16c.84 0 1.635.051 2.362.156a.793.793 0 01-.226 1.567c-.656-.093-1.399-.121-2.154-.14h-.001a.794.794 0 01-.792-.792c0-.443.366-.827.81-.792zM10.542 5a5.548 5.548 0 015.541 5.542c0 2.79-4.389 9.226-4.89 9.95a.796.796 0 01-.651.341.796.796 0 01-.653-.342C9.39 19.768 5 13.331 5 10.541A5.548 5.548 0 0110.542 5zm0 1.583a3.964 3.964 0 00-3.959 3.959c0 1.53 2.214 5.418 3.959 8.08 1.744-2.662 3.958-6.55 3.958-8.08a3.964 3.964 0 00-3.958-3.959zm0 1.584a2.378 2.378 0 012.375 2.375 2.378 2.378 0 01-2.375 2.375 2.378 2.378 0 01-2.375-2.375 2.378 2.378 0 012.375-2.375zm0 1.583a.792.792 0 100 1.584.792.792 0 000-1.584z" fill="var(--icon-color,#333)"/>
    </g>
</svg>
