<svg viewBox="0 0 48 48" xmlns="http://www.w3.org/2000/svg" id="icon">
    <g fill="none" fill-rule="evenodd">
        <path d="M-12-12h48v48h-48z"/>
        <path d="M15.095 43c18.113 0 28.02-14.62 28.02-27.3 0-.415 0-.829-.028-1.24A19.76 19.76 0 0048 9.493a20.064 20.064 0 01-5.656 1.51 9.677 9.677 0 004.33-5.307 20.055 20.055 0 01-6.254 2.329c-3.053-3.163-7.903-3.937-11.832-1.888-3.929 2.048-5.958 6.41-4.95 10.639C15.717 16.389 8.34 12.745 3.34 6.75c-2.613 4.385-1.278 9.994 3.05 12.809a9.972 9.972 0 01-4.47-1.2v.12c.001 4.568 3.306 8.502 7.9 9.406-1.45.386-2.97.442-4.446.165 1.29 3.908 4.987 6.586 9.2 6.663a20.095 20.095 0 01-12.23 4.115A20.57 20.57 0 010 38.69a28.42 28.42 0 0015.095 4.303" fill="var(--icon-color,#333)"/>
    </g>
</svg>
