<svg viewBox="0 0 48 48" xmlns="http://www.w3.org/2000/svg" id="icon">
    <g fill="none" fill-rule="evenodd">
        <path d="M0 0h48v48H0z"/>
        <path d="M34.906 24.942c-.386-6.86-2.085-12.563-4.949-16.732a19.888 19.888 0 0113.86 16.355c-3.052-1.247-6.157-1.09-8.91.377m-9.738-1.075c-.689-.06-1.91-.079-2.537-.016-1.925.108-3.757.586-5.554 1.451.431-8.178 2.84-14.383 6.922-17.797 4.087 3.416 6.496 9.63 6.924 17.817-1.954-.964-3.73-1.405-5.755-1.455m-20.965.673A19.851 19.851 0 017.8 15.58c.113-.155.237-.303.356-.453a20.091 20.091 0 019.883-6.91c-2.86 4.17-4.559 9.872-4.944 16.734-2.73-1.433-5.915-1.606-8.89-.41M24 0a2 2 0 012 2c.001.521-.204.992-.532 1.347a23.894 23.894 0 0120.927 15.27 22.154 22.154 0 011.6 6.907c.013.193.002.42-.025.655.004.085-.034.255-.034.255-.15.88-.594 1.88-1.52 2.354-1.125.577-2.508.268-3.353-.17-2.738-1.427-5.485-1.124-7.738.85-1.39 1.222-2.965 1.344-4.547.354-1.839-1.15-3.228-1.704-4.777-1.886v14.081a2.007 2.007 0 002 1.981c1.09 0 1.99-.89 2-1.98 0-1.1.9-2 2-2 .55 0 1.05.23 1.41.59.37.36.59.86.59 1.41 0 0-.01.15-.01.2-.11 3.2-2.77 5.781-5.99 5.781-3.27 0-5.96-2.66-6-5.932V27.95c-1.553.214-3.018.751-4.534 1.706-.962.605-1.707.915-2.413.915-.81 0-1.569-.408-2.544-1.239-2.143-1.826-4.962-2.104-7.543-.747-.334.175-2.059 1.001-3.479.135-1.223-.74-1.555-2.38-1.478-3.3.338-4.115 1.648-7.865 3.87-11.198.064-.099.13-.197.196-.296.142-.206.28-.414.43-.617 4.1-5.699 10.631-9.511 18.025-9.959A1.99 1.99 0 0122 2a2 2 0 012-2zm22 5a2 2 0 012 2v2a2 2 0 01-4 0V7a2 2 0 012-2zM6 1a2 2 0 012 2v2a2 2 0 01-4 0V3a2 2 0 012-2zm33-1a2 2 0 012 2v2a2 2 0 01-4 0V2a2 2 0 012-2z" fill="var(--icon-color,#333)"/>
    </g>
</svg>
