<svg viewBox="0 0 48 48" xmlns="http://www.w3.org/2000/svg" id="icon">
    <g fill="none" fill-rule="evenodd">
        <path d="M0 0h48v48H0z"/>
        <path d="M41.041 34.5c-2.704 0-3.884-1.34-4.67-2.605l-.476-.77c-.8-1.35-1.62-2.238-3.902-2.238h-5.801l2.043-3.309c.59-.955 1.814-2.577 4.694-2.577h6.712c.578 0 1.764-.493 1.764-1.797 0-1.387-1.189-1.824-1.764-1.824h-8.802c-3.043 0-4.208 1.826-4.673 2.585l-6.121 9.902c-1.02 1.675-2.5 2.627-4.35 2.627-1.839 0-3.328-1.072-4.346-2.627L0 13.5h4.633c2.323 0 3.738 1.041 4.692 2.59l6.353 10.28 6.342-10.273c.775-1.296 2.113-2.597 4.697-2.597h13.891c4.085 0 7.392 3.407 7.392 7.704 0 3.597-2.23 6.562-5.38 7.454l-.281.08 3.562 5.762h-4.86z" fill="var(--icon-color,#333)"/>
    </g>
</svg>
