<svg viewBox="0 0 48 48" xmlns="http://www.w3.org/2000/svg" id="icon">
    <g fill="none" fill-rule="evenodd">
        <path d="M0 0h48v48H0z"/>
        <path d="M45.5 44h-43A2.5 2.5 0 000 46.5V48h48v-1.5a2.5 2.5 0 00-2.5-2.5m-35-27H9v4.5a4 4 0 004 4h4V24a2.5 2.5 0 00-2.5-2.5H13v-2a2.5 2.5 0 00-2.5-2.5m11 0H20v4.5a4 4 0 004 4h4V24a2.5 2.5 0 00-2.5-2.5H24v-2a2.5 2.5 0 00-2.5-2.5m11 0H31v4.5a4 4 0 004 4h4V24a2.5 2.5 0 00-2.5-2.5H35v-2a2.5 2.5 0 00-2.5-2.5m14 11H48V14a8 8 0 00-8-8H8a8 8 0 00-8 8v18a4 4 0 004 4h4.001c0 3.309 2.691 6 6 6s6-2.691 6-6H28c0 3.309 2.691 6 6 6s6-2.691 6-6h8v-1.5a2.5 2.5 0 00-2.5-2.5H40a4 4 0 00-4 3.964c-.007.788-.411 1.542-1.136 1.853-1.487.638-2.925-.482-2.862-1.905C32.096 33.762 30.151 32 28 32h-7.999c-2.151 0-4.097 1.762-4.002 3.912.062 1.423-1.376 2.543-2.862 1.905-.725-.311-1.129-1.065-1.137-1.853A4 4 0 008.001 32H4V14a4 4 0 014-4h32a4 4 0 014 4v11.5a2.5 2.5 0 002.5 2.5" fill="var(--icon-color,#333)"/>
    </g>
</svg>
