<svg viewBox="0 0 48 48" xmlns="http://www.w3.org/2000/svg" id="icon">
    <g fill="none" fill-rule="evenodd">
        <path d="M0 0h48v48H0z"/>
        <path d="M31 42a2 2 0 01-2 2H19a2 2 0 01-2-2V32h14v10zM21.5 7h5V4h-5v3zM28 0a2.5 2.5 0 012.5 2.5v6c0 .503-.15.969-.406 1.36 2.817 1.891 4.718 5.049 4.884 8.64H35V42c0 3.313-2.688 6-6 6H19a6 6 0 01-6-6V32c0-2.036 1.527-3.699 3.496-3.949.163-.033.331-.051.504-.051h14v-9.094C30.947 15.099 27.807 12 24 12s-6.947 3.099-7 6.906V24l-1.5-.001A2.498 2.498 0 0113 21.5V18h.055c.311-3.383 2.165-6.337 4.851-8.14A2.48 2.48 0 0117.5 8.5v-6A2.5 2.5 0 0120 0zm-1 14.5V16a2.5 2.5 0 01-2.5 2.5H24v.5a2.5 2.5 0 01-2.5 2.5H20v-3c0-2.21 1.79-4 4-4h3z" fill="var(--icon-color,#333)"/>
    </g>
</svg>
