<svg viewBox="0 0 48 48" xmlns="http://www.w3.org/2000/svg" id="icon">
    <g fill="none" fill-rule="evenodd">
        <path d="M0 0h48v48H0z"/>
        <path d="M38.319 14c4.143 0 7.897 2.47 9.562 6.292l-1.708.753c-1.035.456-2.202.11-2.934-.755a6.442 6.442 0 00-4.92-2.29c-3.563 0-6.462 2.916-6.462 6.5s2.9 6.5 6.462 6.5c1.924 0 3.712-.86 4.92-2.289.732-.865 1.9-1.211 2.934-.755l1.708.752C46.216 32.531 42.462 35 38.319 35c-5.755 0-10.438-4.709-10.438-10.5 0-5.79 4.683-10.5 10.438-10.5zm-24.352.331c2.033 0 3.66 1.405 3.957 3.417l1.903 12.921 2.764-11.146.749-3.021a2.502 2.502 0 012.427-1.898h2.165l-.88 3.55-3.343 13.478a3.955 3.955 0 01-3.873 3.038c-.068 0-.134-.002-.203-.004a3.963 3.963 0 01-3.763-3.414l-1.903-12.921-1.904 12.921a3.959 3.959 0 01-3.764 3.414c-1.937.066-3.611-1.155-4.076-3.034L0 14.604h2.166c1.149 0 2.15.783 2.426 1.898l.6 2.418 2.914 11.749 1.904-12.92c.295-2.012 1.922-3.417 3.955-3.418z" fill="var(--icon-color,#333)"/>
    </g>
</svg>
