<svg viewBox="0 0 48 48" xmlns="http://www.w3.org/2000/svg" id="icon">
    <g fill="none" fill-rule="evenodd">
        <path d="M0 0h48v48H0z"/>
        <path d="M25 11a3.5 3.5 0 110-7 3.5 3.5 0 110 7zm5.259 18a5.961 5.961 0 015.856 4.698L38.422 44h-2.108a2.501 2.501 0 01-2.441-1.957l-1.662-7.477A2.002 2.002 0 0030.258 33h-6.284a6 6 0 01-5.869-4.75l-.716-3.365C14.748 26.226 13 28.943 13 32c0 4.411 3.589 8 8 8 1.81 0 3.476-.609 4.815-1.629.934-.711 2.214-.743 3.13-.01l1.403 1.122C28.146 42.228 24.783 44 21 44c-6.617 0-12-5.383-12-12a12 12 0 017.534-11.131l-.091-.426c-.312-1.468-.164-3.028.569-4.339C18.103 14.152 20.101 13 22.27 13h1.902a6 6 0 015.867 4.745l.145.674A1.998 1.998 0 0032.139 20H33.5a2.5 2.5 0 012.5 2.5V24h-3.861a6.001 6.001 0 01-5.868-4.746l-.143-.67A2.002 2.002 0 0024.17 17h-1.9c-.606 0-1.172.271-1.554.742a1.989 1.989 0 00-.402 1.674l1.703 8.001A2 2 0 0023.973 29h6.286z" fill="var(--icon-color,#333)"/>
    </g>
</svg>
