<svg viewBox="0 0 48 48" xmlns="http://www.w3.org/2000/svg" id="icon">
    <g fill="none" fill-rule="evenodd">
        <path d="M0 0h48v48H0z"/>
        <path d="M26.372 40.131A4 4 0 0022.467 37h-4.956a8 8 0 01-7.821-6.317L6.516 15.972A2.499 2.499 0 004.072 14H2l3.78 17.525A12 12 0 0017.512 41h4.952l.667 3H12.648a2.5 2.5 0 00-2.5 2.5V48h12.991a4 4 0 003.902-4.875l-.669-2.994zM18.279 12a3.5 3.5 0 100-7 3.5 3.5 0 000 7zM34.09 45l-2.084-9.302A5.962 5.962 0 0026.149 31h-8.674c-.944 0-1.759-.66-1.957-1.583l-1.924-9.001a1.988 1.988 0 01.401-1.674A1.99 1.99 0 0115.55 18h1.899c.944 0 1.76.66 1.958 1.584l.144.67A6 6 0 0025.418 25h3.73v-1.5a2.5 2.5 0 00-2.5-2.5h-1.23a2 2 0 01-1.955-1.581l-.145-.675A6 6 0 0017.451 14H15.55c-2.169 0-4.167 1.152-5.259 3.104-.732 1.311-.881 2.871-.568 4.339l1.883 8.807A6.001 6.001 0 0017.475 35h8.673a2 2 0 011.953 1.566l2.113 9.477A2.5 2.5 0 0032.654 48h2.108l-.672-3zm9.401-29h-1.002l-2.341 11h-11v1.5a2.5 2.5 0 002.5 2.5h8.5a4 4 0 003.912-3.167l1.876-8.813A2.499 2.499 0 0043.491 16z" fill="var(--icon-color,#333)"/>
    </g>
</svg>
