<svg viewBox="0 0 20 14" xmlns="http://www.w3.org/2000/svg" id="icon">
    <g fill="none" fill-rule="evenodd">
        <path d="M-799-349h48v48h-48z"/>
        <path d="M16.615 0H3.385C1.515 0 0 1.532 0 3.422v7.156C0 12.468 1.515 14 3.385 14h13.23C18.485 14 20 12.468 20 10.578V3.422C20 1.532 18.485 0 16.615 0zm-2.869 6.905L7.681 9.949a.475.475 0 01-.457-.015.455.455 0 01-.224-.39V3.456c0-.16.085-.307.224-.39a.475.475 0 01.457-.015l6.065 3.044a.456.456 0 01.254.407.456.456 0 01-.254.406v-.003z" fill="var(--icon-color,#333)"/>
    </g>
</svg>
